<?xml version="1.0" encoding="UTF-8"?>
<!DOCTYPE svg PUBLIC "-//W3C//DTD SVG 1.1//EN" "http://www.w3.org/Graphics/SVG/1.1/DTD/svg11.dtd">
<svg version="1.2" width="268.6mm" height="268.6mm" viewBox="0 0 26860 26860" preserveAspectRatio="xMidYMid" fill-rule="evenodd" stroke-width="28.222" stroke-linejoin="round" xmlns="http://www.w3.org/2000/svg" xmlns:ooo="http://xml.openoffice.org/svg/export" xmlns:xlink="http://www.w3.org/1999/xlink" xmlns:presentation="http://sun.com/xmlns/staroffice/presentation" xmlns:smil="http://www.w3.org/2001/SMIL20/" xmlns:anim="urn:oasis:names:tc:opendocument:xmlns:animation:1.0" xmlns:svg="urn:oasis:names:tc:opendocument:xmlns:svg-compatible:1.0" xml:space="preserve">
 <defs class="ClipPathGroup">
  <clipPath id="presentation_clip_path" clipPathUnits="userSpaceOnUse">
   <rect x="0" y="0" width="26860" height="26860"/>
  </clipPath>
  <clipPath id="presentation_clip_path_shrink" clipPathUnits="userSpaceOnUse">
   <rect x="26" y="26" width="26807" height="26807"/>
  </clipPath>
 </defs>
 <defs class="TextShapeIndex">
  <g ooo:slide="id1" ooo:id-list="id3 id4 id5 id6 id7 id8 id9 id10 id11 id12 id13 id14 id15 id16 id17 id18 id19 id20 id21"/>
 </defs>
 <defs class="EmbeddedBulletChars">
  <g id="bullet-char-template-57356" transform="scale(0.00048828125,-0.00048828125)">
   <path d="M 580,1141 L 1163,571 580,0 -4,571 580,1141 Z"/>
  </g>
  <g id="bullet-char-template-57354" transform="scale(0.00048828125,-0.00048828125)">
   <path d="M 8,1128 L 1137,1128 1137,0 8,0 8,1128 Z"/>
  </g>
  <g id="bullet-char-template-10146" transform="scale(0.00048828125,-0.00048828125)">
   <path d="M 174,0 L 602,739 174,1481 1456,739 174,0 Z M 1358,739 L 309,1346 659,739 1358,739 Z"/>
  </g>
  <g id="bullet-char-template-10132" transform="scale(0.00048828125,-0.00048828125)">
   <path d="M 2015,739 L 1276,0 717,0 1260,543 174,543 174,936 1260,936 717,1481 1274,1481 2015,739 Z"/>
  </g>
  <g id="bullet-char-template-10007" transform="scale(0.00048828125,-0.00048828125)">
   <path d="M 0,-2 C -7,14 -16,27 -25,37 L 356,567 C 262,823 215,952 215,954 215,979 228,992 255,992 264,992 276,990 289,987 310,991 331,999 354,1012 L 381,999 492,748 772,1049 836,1024 860,1049 C 881,1039 901,1025 922,1006 886,937 835,863 770,784 769,783 710,716 594,584 L 774,223 C 774,196 753,168 711,139 L 727,119 C 717,90 699,76 672,76 641,76 570,178 457,381 L 164,-76 C 142,-110 111,-127 72,-127 30,-127 9,-110 8,-76 1,-67 -2,-52 -2,-32 -2,-23 -1,-13 0,-2 Z"/>
  </g>
  <g id="bullet-char-template-10004" transform="scale(0.00048828125,-0.00048828125)">
   <path d="M 285,-33 C 182,-33 111,30 74,156 52,228 41,333 41,471 41,549 55,616 82,672 116,743 169,778 240,778 293,778 328,747 346,684 L 369,508 C 377,444 397,411 428,410 L 1163,1116 C 1174,1127 1196,1133 1229,1133 1271,1133 1292,1118 1292,1087 L 1292,965 C 1292,929 1282,901 1262,881 L 442,47 C 390,-6 338,-33 285,-33 Z"/>
  </g>
  <g id="bullet-char-template-9679" transform="scale(0.00048828125,-0.00048828125)">
   <path d="M 813,0 C 632,0 489,54 383,161 276,268 223,411 223,592 223,773 276,916 383,1023 489,1130 632,1184 813,1184 992,1184 1136,1130 1245,1023 1353,916 1407,772 1407,592 1407,412 1353,268 1245,161 1136,54 992,0 813,0 Z"/>
  </g>
  <g id="bullet-char-template-8226" transform="scale(0.00048828125,-0.00048828125)">
   <path d="M 346,457 C 273,457 209,483 155,535 101,586 74,649 74,723 74,796 101,859 155,911 209,963 273,989 346,989 419,989 480,963 531,910 582,859 608,796 608,723 608,648 583,586 532,535 482,483 420,457 346,457 Z"/>
  </g>
  <g id="bullet-char-template-8211" transform="scale(0.00048828125,-0.00048828125)">
   <path d="M -4,459 L 1135,459 1135,606 -4,606 -4,459 Z"/>
  </g>
  <g id="bullet-char-template-61548" transform="scale(0.00048828125,-0.00048828125)">
   <path d="M 173,740 C 173,903 231,1043 346,1159 462,1274 601,1332 765,1332 928,1332 1067,1274 1183,1159 1299,1043 1357,903 1357,740 1357,577 1299,437 1183,322 1067,206 928,148 765,148 601,148 462,206 346,322 231,437 173,577 173,740 Z"/>
  </g>
 </defs>
 <g>
  <g id="id2" class="Master_Slide">
   <g id="bg-id2" class="Background"/>
   <g id="bo-id2" class="BackgroundObjects"/>
  </g>
 </g>
 <g class="SlideGroup">
  <g>
   <g id="container-id1">
    <g id="id1" class="Slide" clip-path="url(#presentation_clip_path)">
     <g class="Page">
      <g class="com.sun.star.drawing.CustomShape">
       <g id="id3">
        <rect class="BoundingBox" stroke="none" fill="none" x="0" y="0" width="26862" height="26862"/>
        <path fill="rgb(175,209,247)" stroke="none" d="M 4476,0 L 4477,0 C 3691,0 2919,207 2238,600 1558,993 993,1558 600,2238 207,2919 0,3691 0,4477 L 0,22384 0,22384 C 0,23170 207,23942 600,24623 993,25303 1558,25868 2238,26261 2919,26654 3691,26861 4477,26861 L 22384,26861 22384,26861 C 23170,26861 23942,26654 24623,26261 25303,25868 25868,25303 26261,24623 26654,23942 26861,23170 26861,22384 L 26861,4476 26861,4477 26861,4477 C 26861,3691 26654,2919 26261,2238 25868,1558 25303,993 24623,600 23942,207 23170,0 22384,0 L 4476,0 Z"/>
       </g>
      </g>
      <g class="com.sun.star.drawing.CustomShape">
       <g id="id4">
        <rect class="BoundingBox" stroke="none" fill="none" x="2599" y="10098" width="4302" height="2357"/>
        <path fill="rgb(52,101,164)" stroke="none" d="M 2992,10099 L 2992,10099 C 2923,10099 2856,10117 2796,10152 2737,10186 2687,10236 2653,10295 2618,10355 2600,10422 2600,10491 L 2600,12060 2600,12061 C 2600,12130 2618,12197 2653,12257 2687,12316 2737,12366 2796,12400 2856,12435 2923,12453 2992,12453 L 6506,12453 6507,12453 C 6576,12453 6643,12435 6703,12400 6762,12366 6812,12316 6846,12257 6881,12197 6899,12130 6899,12061 L 6899,10491 6899,10491 6899,10491 C 6899,10422 6881,10355 6846,10295 6812,10236 6762,10186 6703,10152 6643,10117 6576,10099 6507,10099 L 2992,10099 Z"/>
        <path fill="none" stroke="rgb(52,101,164)" d="M 2992,10099 L 2992,10099 C 2923,10099 2856,10117 2796,10152 2737,10186 2687,10236 2653,10295 2618,10355 2600,10422 2600,10491 L 2600,12060 2600,12061 C 2600,12130 2618,12197 2653,12257 2687,12316 2737,12366 2796,12400 2856,12435 2923,12453 2992,12453 L 6506,12453 6507,12453 C 6576,12453 6643,12435 6703,12400 6762,12366 6812,12316 6846,12257 6881,12197 6899,12130 6899,12061 L 6899,10491 6899,10491 6899,10491 C 6899,10422 6881,10355 6846,10295 6812,10236 6762,10186 6703,10152 6643,10117 6576,10099 6507,10099 L 2992,10099 Z"/>
       </g>
      </g>
      <g class="com.sun.star.drawing.CustomShape">
       <g id="id5">
        <rect class="BoundingBox" stroke="none" fill="none" x="2568" y="2258" width="21823" height="6240"/>
        <path fill="rgb(168,191,166)" stroke="none" d="M 3607,2258 L 3608,2258 C 3425,2258 3246,2306 3088,2397 2930,2489 2799,2620 2707,2778 2616,2936 2568,3115 2568,3298 L 2568,7457 2568,7457 C 2568,7640 2616,7819 2707,7977 2799,8135 2930,8266 3088,8358 3246,8449 3425,8497 3608,8497 L 23349,8497 23349,8497 C 23532,8497 23711,8449 23869,8358 24027,8266 24158,8135 24250,7977 24341,7819 24389,7640 24389,7457 L 24389,3297 24389,3298 24389,3298 C 24389,3115 24341,2936 24250,2778 24158,2620 24027,2489 23869,2397 23711,2306 23532,2258 23349,2258 L 3607,2258 Z"/>
       </g>
      </g>
      <g class="com.sun.star.drawing.CustomShape">
       <g id="id6">
        <rect class="BoundingBox" stroke="none" fill="none" x="8389" y="10098" width="4302" height="2357"/>
        <path fill="rgb(52,101,164)" stroke="none" d="M 8782,10099 L 8782,10099 C 8713,10099 8646,10117 8586,10152 8527,10186 8477,10236 8443,10295 8408,10355 8390,10422 8390,10491 L 8390,12060 8390,12061 C 8390,12130 8408,12197 8443,12257 8477,12316 8527,12366 8586,12400 8646,12435 8713,12453 8782,12453 L 12296,12453 12297,12453 C 12366,12453 12433,12435 12493,12400 12552,12366 12602,12316 12636,12257 12671,12197 12689,12130 12689,12061 L 12689,10491 12689,10491 12689,10491 C 12689,10422 12671,10355 12636,10295 12602,10236 12552,10186 12493,10152 12433,10117 12366,10099 12297,10099 L 8782,10099 Z"/>
        <path fill="none" stroke="rgb(52,101,164)" d="M 8782,10099 L 8782,10099 C 8713,10099 8646,10117 8586,10152 8527,10186 8477,10236 8443,10295 8408,10355 8390,10422 8390,10491 L 8390,12060 8390,12061 C 8390,12130 8408,12197 8443,12257 8477,12316 8527,12366 8586,12400 8646,12435 8713,12453 8782,12453 L 12296,12453 12297,12453 C 12366,12453 12433,12435 12493,12400 12552,12366 12602,12316 12636,12257 12671,12197 12689,12130 12689,12061 L 12689,10491 12689,10491 12689,10491 C 12689,10422 12671,10355 12636,10295 12602,10236 12552,10186 12493,10152 12433,10117 12366,10099 12297,10099 L 8782,10099 Z"/>
       </g>
      </g>
      <g class="com.sun.star.drawing.CustomShape">
       <g id="id7">
        <rect class="BoundingBox" stroke="none" fill="none" x="14171" y="10098" width="4302" height="2357"/>
        <path fill="rgb(52,101,164)" stroke="none" d="M 14564,10099 L 14564,10099 C 14495,10099 14428,10117 14368,10152 14309,10186 14259,10236 14225,10295 14190,10355 14172,10422 14172,10491 L 14172,12060 14172,12061 C 14172,12130 14190,12197 14225,12257 14259,12316 14309,12366 14368,12400 14428,12435 14495,12453 14564,12453 L 18078,12453 18079,12453 C 18148,12453 18215,12435 18275,12400 18334,12366 18384,12316 18418,12257 18453,12197 18471,12130 18471,12061 L 18471,10491 18471,10491 18471,10491 C 18471,10422 18453,10355 18418,10295 18384,10236 18334,10186 18275,10152 18215,10117 18148,10099 18079,10099 L 14564,10099 Z"/>
        <path fill="none" stroke="rgb(52,101,164)" d="M 14564,10099 L 14564,10099 C 14495,10099 14428,10117 14368,10152 14309,10186 14259,10236 14225,10295 14190,10355 14172,10422 14172,10491 L 14172,12060 14172,12061 C 14172,12130 14190,12197 14225,12257 14259,12316 14309,12366 14368,12400 14428,12435 14495,12453 14564,12453 L 18078,12453 18079,12453 C 18148,12453 18215,12435 18275,12400 18334,12366 18384,12316 18418,12257 18453,12197 18471,12130 18471,12061 L 18471,10491 18471,10491 18471,10491 C 18471,10422 18453,10355 18418,10295 18384,10236 18334,10186 18275,10152 18215,10117 18148,10099 18079,10099 L 14564,10099 Z"/>
       </g>
      </g>
      <g class="com.sun.star.drawing.CustomShape">
       <g id="id8">
        <rect class="BoundingBox" stroke="none" fill="none" x="19961" y="10098" width="4302" height="2357"/>
        <path fill="rgb(236,13,54)" stroke="none" d="M 20354,10099 L 20354,10099 C 20285,10099 20218,10117 20158,10152 20099,10186 20049,10236 20015,10295 19980,10355 19962,10422 19962,10491 L 19962,12060 19962,12061 C 19962,12130 19980,12197 20015,12257 20049,12316 20099,12366 20158,12400 20218,12435 20285,12453 20354,12453 L 23868,12453 23869,12453 C 23938,12453 24005,12435 24065,12400 24124,12366 24174,12316 24208,12257 24243,12197 24261,12130 24261,12061 L 24261,10491 24261,10491 24261,10491 C 24261,10422 24243,10355 24208,10295 24174,10236 24124,10186 24065,10152 24005,10117 23938,10099 23869,10099 L 20354,10099 Z"/>
        <path fill="none" stroke="rgb(236,13,54)" d="M 20354,10099 L 20354,10099 C 20285,10099 20218,10117 20158,10152 20099,10186 20049,10236 20015,10295 19980,10355 19962,10422 19962,10491 L 19962,12060 19962,12061 C 19962,12130 19980,12197 20015,12257 20049,12316 20099,12366 20158,12400 20218,12435 20285,12453 20354,12453 L 23868,12453 23869,12453 C 23938,12453 24005,12435 24065,12400 24124,12366 24174,12316 24208,12257 24243,12197 24261,12130 24261,12061 L 24261,10491 24261,10491 24261,10491 C 24261,10422 24243,10355 24208,10295 24174,10236 24124,10186 24065,10152 24005,10117 23938,10099 23869,10099 L 20354,10099 Z"/>
       </g>
      </g>
      <g class="com.sun.star.drawing.CustomShape">
       <g id="id9">
        <rect class="BoundingBox" stroke="none" fill="none" x="2599" y="13935" width="4302" height="2357"/>
        <path fill="rgb(52,101,164)" stroke="none" d="M 2992,13936 L 2992,13936 C 2923,13936 2856,13954 2796,13989 2737,14023 2687,14073 2653,14132 2618,14192 2600,14259 2600,14328 L 2600,15897 2600,15898 C 2600,15967 2618,16034 2653,16094 2687,16153 2737,16203 2796,16237 2856,16272 2923,16290 2992,16290 L 6506,16290 6507,16290 C 6576,16290 6643,16272 6703,16237 6762,16203 6812,16153 6846,16094 6881,16034 6899,15967 6899,15898 L 6899,14328 6899,14328 6899,14328 C 6899,14259 6881,14192 6846,14132 6812,14073 6762,14023 6703,13989 6643,13954 6576,13936 6507,13936 L 2992,13936 Z"/>
        <path fill="none" stroke="rgb(52,101,164)" d="M 2992,13936 L 2992,13936 C 2923,13936 2856,13954 2796,13989 2737,14023 2687,14073 2653,14132 2618,14192 2600,14259 2600,14328 L 2600,15897 2600,15898 C 2600,15967 2618,16034 2653,16094 2687,16153 2737,16203 2796,16237 2856,16272 2923,16290 2992,16290 L 6506,16290 6507,16290 C 6576,16290 6643,16272 6703,16237 6762,16203 6812,16153 6846,16094 6881,16034 6899,15967 6899,15898 L 6899,14328 6899,14328 6899,14328 C 6899,14259 6881,14192 6846,14132 6812,14073 6762,14023 6703,13989 6643,13954 6576,13936 6507,13936 L 2992,13936 Z"/>
       </g>
      </g>
      <g class="com.sun.star.drawing.CustomShape">
       <g id="id10">
        <rect class="BoundingBox" stroke="none" fill="none" x="8389" y="13935" width="4302" height="2357"/>
        <path fill="rgb(52,101,164)" stroke="none" d="M 8782,13936 L 8782,13936 C 8713,13936 8646,13954 8586,13989 8527,14023 8477,14073 8443,14132 8408,14192 8390,14259 8390,14328 L 8390,15897 8390,15898 C 8390,15967 8408,16034 8443,16094 8477,16153 8527,16203 8586,16237 8646,16272 8713,16290 8782,16290 L 12296,16290 12297,16290 C 12366,16290 12433,16272 12493,16237 12552,16203 12602,16153 12636,16094 12671,16034 12689,15967 12689,15898 L 12689,14328 12689,14328 12689,14328 C 12689,14259 12671,14192 12636,14132 12602,14073 12552,14023 12493,13989 12433,13954 12366,13936 12297,13936 L 8782,13936 Z"/>
        <path fill="none" stroke="rgb(52,101,164)" d="M 8782,13936 L 8782,13936 C 8713,13936 8646,13954 8586,13989 8527,14023 8477,14073 8443,14132 8408,14192 8390,14259 8390,14328 L 8390,15897 8390,15898 C 8390,15967 8408,16034 8443,16094 8477,16153 8527,16203 8586,16237 8646,16272 8713,16290 8782,16290 L 12296,16290 12297,16290 C 12366,16290 12433,16272 12493,16237 12552,16203 12602,16153 12636,16094 12671,16034 12689,15967 12689,15898 L 12689,14328 12689,14328 12689,14328 C 12689,14259 12671,14192 12636,14132 12602,14073 12552,14023 12493,13989 12433,13954 12366,13936 12297,13936 L 8782,13936 Z"/>
       </g>
      </g>
      <g class="com.sun.star.drawing.CustomShape">
       <g id="id11">
        <rect class="BoundingBox" stroke="none" fill="none" x="14171" y="13935" width="4302" height="2357"/>
        <path fill="rgb(52,101,164)" stroke="none" d="M 14564,13936 L 14564,13936 C 14495,13936 14428,13954 14368,13989 14309,14023 14259,14073 14225,14132 14190,14192 14172,14259 14172,14328 L 14172,15897 14172,15898 C 14172,15967 14190,16034 14225,16094 14259,16153 14309,16203 14368,16237 14428,16272 14495,16290 14564,16290 L 18078,16290 18079,16290 C 18148,16290 18215,16272 18275,16237 18334,16203 18384,16153 18418,16094 18453,16034 18471,15967 18471,15898 L 18471,14328 18471,14328 18471,14328 C 18471,14259 18453,14192 18418,14132 18384,14073 18334,14023 18275,13989 18215,13954 18148,13936 18079,13936 L 14564,13936 Z"/>
        <path fill="none" stroke="rgb(52,101,164)" d="M 14564,13936 L 14564,13936 C 14495,13936 14428,13954 14368,13989 14309,14023 14259,14073 14225,14132 14190,14192 14172,14259 14172,14328 L 14172,15897 14172,15898 C 14172,15967 14190,16034 14225,16094 14259,16153 14309,16203 14368,16237 14428,16272 14495,16290 14564,16290 L 18078,16290 18079,16290 C 18148,16290 18215,16272 18275,16237 18334,16203 18384,16153 18418,16094 18453,16034 18471,15967 18471,15898 L 18471,14328 18471,14328 18471,14328 C 18471,14259 18453,14192 18418,14132 18384,14073 18334,14023 18275,13989 18215,13954 18148,13936 18079,13936 L 14564,13936 Z"/>
       </g>
      </g>
      <g class="com.sun.star.drawing.CustomShape">
       <g id="id12">
        <rect class="BoundingBox" stroke="none" fill="none" x="19961" y="13935" width="4302" height="2357"/>
        <path fill="rgb(102,102,102)" stroke="none" d="M 20354,13936 L 20354,13936 C 20285,13936 20218,13954 20158,13989 20099,14023 20049,14073 20015,14132 19980,14192 19962,14259 19962,14328 L 19962,15897 19962,15898 C 19962,15967 19980,16034 20015,16094 20049,16153 20099,16203 20158,16237 20218,16272 20285,16290 20354,16290 L 23868,16290 23869,16290 C 23938,16290 24005,16272 24065,16237 24124,16203 24174,16153 24208,16094 24243,16034 24261,15967 24261,15898 L 24261,14328 24261,14328 24261,14328 C 24261,14259 24243,14192 24208,14132 24174,14073 24124,14023 24065,13989 24005,13954 23938,13936 23869,13936 L 20354,13936 Z"/>
        <path fill="none" stroke="rgb(102,102,102)" d="M 20354,13936 L 20354,13936 C 20285,13936 20218,13954 20158,13989 20099,14023 20049,14073 20015,14132 19980,14192 19962,14259 19962,14328 L 19962,15897 19962,15898 C 19962,15967 19980,16034 20015,16094 20049,16153 20099,16203 20158,16237 20218,16272 20285,16290 20354,16290 L 23868,16290 23869,16290 C 23938,16290 24005,16272 24065,16237 24124,16203 24174,16153 24208,16094 24243,16034 24261,15967 24261,15898 L 24261,14328 24261,14328 24261,14328 C 24261,14259 24243,14192 24208,14132 24174,14073 24124,14023 24065,13989 24005,13954 23938,13936 23869,13936 L 20354,13936 Z"/>
       </g>
      </g>
      <g class="com.sun.star.drawing.CustomShape">
       <g id="id13">
        <rect class="BoundingBox" stroke="none" fill="none" x="2599" y="17772" width="4302" height="2357"/>
        <path fill="rgb(52,101,164)" stroke="none" d="M 2992,17773 L 2992,17773 C 2923,17773 2856,17791 2796,17826 2737,17860 2687,17910 2653,17969 2618,18029 2600,18096 2600,18165 L 2600,19734 2600,19735 C 2600,19804 2618,19871 2653,19931 2687,19990 2737,20040 2796,20074 2856,20109 2923,20127 2992,20127 L 6506,20127 6507,20127 C 6576,20127 6643,20109 6703,20074 6762,20040 6812,19990 6846,19931 6881,19871 6899,19804 6899,19735 L 6899,18165 6899,18165 6899,18165 C 6899,18096 6881,18029 6846,17969 6812,17910 6762,17860 6703,17826 6643,17791 6576,17773 6507,17773 L 2992,17773 Z"/>
        <path fill="none" stroke="rgb(52,101,164)" d="M 2992,17773 L 2992,17773 C 2923,17773 2856,17791 2796,17826 2737,17860 2687,17910 2653,17969 2618,18029 2600,18096 2600,18165 L 2600,19734 2600,19735 C 2600,19804 2618,19871 2653,19931 2687,19990 2737,20040 2796,20074 2856,20109 2923,20127 2992,20127 L 6506,20127 6507,20127 C 6576,20127 6643,20109 6703,20074 6762,20040 6812,19990 6846,19931 6881,19871 6899,19804 6899,19735 L 6899,18165 6899,18165 6899,18165 C 6899,18096 6881,18029 6846,17969 6812,17910 6762,17860 6703,17826 6643,17791 6576,17773 6507,17773 L 2992,17773 Z"/>
       </g>
      </g>
      <g class="com.sun.star.drawing.CustomShape">
       <g id="id14">
        <rect class="BoundingBox" stroke="none" fill="none" x="8389" y="17772" width="4302" height="2357"/>
        <path fill="rgb(52,101,164)" stroke="none" d="M 8782,17773 L 8782,17773 C 8713,17773 8646,17791 8586,17826 8527,17860 8477,17910 8443,17969 8408,18029 8390,18096 8390,18165 L 8390,19734 8390,19735 C 8390,19804 8408,19871 8443,19931 8477,19990 8527,20040 8586,20074 8646,20109 8713,20127 8782,20127 L 12296,20127 12297,20127 C 12366,20127 12433,20109 12493,20074 12552,20040 12602,19990 12636,19931 12671,19871 12689,19804 12689,19735 L 12689,18165 12689,18165 12689,18165 C 12689,18096 12671,18029 12636,17969 12602,17910 12552,17860 12493,17826 12433,17791 12366,17773 12297,17773 L 8782,17773 Z"/>
        <path fill="none" stroke="rgb(52,101,164)" d="M 8782,17773 L 8782,17773 C 8713,17773 8646,17791 8586,17826 8527,17860 8477,17910 8443,17969 8408,18029 8390,18096 8390,18165 L 8390,19734 8390,19735 C 8390,19804 8408,19871 8443,19931 8477,19990 8527,20040 8586,20074 8646,20109 8713,20127 8782,20127 L 12296,20127 12297,20127 C 12366,20127 12433,20109 12493,20074 12552,20040 12602,19990 12636,19931 12671,19871 12689,19804 12689,19735 L 12689,18165 12689,18165 12689,18165 C 12689,18096 12671,18029 12636,17969 12602,17910 12552,17860 12493,17826 12433,17791 12366,17773 12297,17773 L 8782,17773 Z"/>
       </g>
      </g>
      <g class="com.sun.star.drawing.CustomShape">
       <g id="id15">
        <rect class="BoundingBox" stroke="none" fill="none" x="14171" y="17772" width="4302" height="2357"/>
        <path fill="rgb(52,101,164)" stroke="none" d="M 14564,17773 L 14564,17773 C 14495,17773 14428,17791 14368,17826 14309,17860 14259,17910 14225,17969 14190,18029 14172,18096 14172,18165 L 14172,19734 14172,19735 C 14172,19804 14190,19871 14225,19931 14259,19990 14309,20040 14368,20074 14428,20109 14495,20127 14564,20127 L 18078,20127 18079,20127 C 18148,20127 18215,20109 18275,20074 18334,20040 18384,19990 18418,19931 18453,19871 18471,19804 18471,19735 L 18471,18165 18471,18165 18471,18165 C 18471,18096 18453,18029 18418,17969 18384,17910 18334,17860 18275,17826 18215,17791 18148,17773 18079,17773 L 14564,17773 Z"/>
        <path fill="none" stroke="rgb(52,101,164)" d="M 14564,17773 L 14564,17773 C 14495,17773 14428,17791 14368,17826 14309,17860 14259,17910 14225,17969 14190,18029 14172,18096 14172,18165 L 14172,19734 14172,19735 C 14172,19804 14190,19871 14225,19931 14259,19990 14309,20040 14368,20074 14428,20109 14495,20127 14564,20127 L 18078,20127 18079,20127 C 18148,20127 18215,20109 18275,20074 18334,20040 18384,19990 18418,19931 18453,19871 18471,19804 18471,19735 L 18471,18165 18471,18165 18471,18165 C 18471,18096 18453,18029 18418,17969 18384,17910 18334,17860 18275,17826 18215,17791 18148,17773 18079,17773 L 14564,17773 Z"/>
       </g>
      </g>
      <g class="com.sun.star.drawing.CustomShape">
       <g id="id16">
        <rect class="BoundingBox" stroke="none" fill="none" x="19961" y="17772" width="4302" height="2357"/>
        <path fill="rgb(102,102,102)" stroke="none" d="M 20354,17773 L 20354,17773 C 20285,17773 20218,17791 20158,17826 20099,17860 20049,17910 20015,17969 19980,18029 19962,18096 19962,18165 L 19962,19734 19962,19735 C 19962,19804 19980,19871 20015,19931 20049,19990 20099,20040 20158,20074 20218,20109 20285,20127 20354,20127 L 23868,20127 23869,20127 C 23938,20127 24005,20109 24065,20074 24124,20040 24174,19990 24208,19931 24243,19871 24261,19804 24261,19735 L 24261,18165 24261,18165 24261,18165 C 24261,18096 24243,18029 24208,17969 24174,17910 24124,17860 24065,17826 24005,17791 23938,17773 23869,17773 L 20354,17773 Z"/>
        <path fill="none" stroke="rgb(102,102,102)" d="M 20354,17773 L 20354,17773 C 20285,17773 20218,17791 20158,17826 20099,17860 20049,17910 20015,17969 19980,18029 19962,18096 19962,18165 L 19962,19734 19962,19735 C 19962,19804 19980,19871 20015,19931 20049,19990 20099,20040 20158,20074 20218,20109 20285,20127 20354,20127 L 23868,20127 23869,20127 C 23938,20127 24005,20109 24065,20074 24124,20040 24174,19990 24208,19931 24243,19871 24261,19804 24261,19735 L 24261,18165 24261,18165 24261,18165 C 24261,18096 24243,18029 24208,17969 24174,17910 24124,17860 24065,17826 24005,17791 23938,17773 23869,17773 L 20354,17773 Z"/>
       </g>
      </g>
      <g class="com.sun.star.drawing.CustomShape">
       <g id="id17">
        <rect class="BoundingBox" stroke="none" fill="none" x="2599" y="21609" width="4302" height="2353"/>
        <path fill="rgb(52,101,164)" stroke="none" d="M 2991,21610 L 2992,21610 C 2923,21610 2855,21628 2796,21662 2736,21697 2687,21746 2652,21806 2618,21865 2600,21933 2600,22002 L 2600,23568 2600,23568 C 2600,23637 2618,23705 2652,23764 2687,23824 2736,23873 2796,23908 2855,23942 2923,23960 2992,23960 L 6507,23960 6507,23960 C 6576,23960 6644,23942 6703,23908 6763,23873 6812,23824 6847,23764 6881,23705 6899,23637 6899,23568 L 6899,22001 6899,22002 6899,22002 C 6899,21933 6881,21865 6847,21806 6812,21746 6763,21697 6703,21662 6644,21628 6576,21610 6507,21610 L 2991,21610 Z"/>
        <path fill="none" stroke="rgb(52,101,164)" d="M 2991,21610 L 2992,21610 C 2923,21610 2855,21628 2796,21662 2736,21697 2687,21746 2652,21806 2618,21865 2600,21933 2600,22002 L 2600,23568 2600,23568 C 2600,23637 2618,23705 2652,23764 2687,23824 2736,23873 2796,23908 2855,23942 2923,23960 2992,23960 L 6507,23960 6507,23960 C 6576,23960 6644,23942 6703,23908 6763,23873 6812,23824 6847,23764 6881,23705 6899,23637 6899,23568 L 6899,22001 6899,22002 6899,22002 C 6899,21933 6881,21865 6847,21806 6812,21746 6763,21697 6703,21662 6644,21628 6576,21610 6507,21610 L 2991,21610 Z"/>
       </g>
      </g>
      <g class="com.sun.star.drawing.CustomShape">
       <g id="id18">
        <rect class="BoundingBox" stroke="none" fill="none" x="8389" y="21609" width="4302" height="2353"/>
        <path fill="rgb(102,102,102)" stroke="none" d="M 8781,21610 L 8782,21610 C 8713,21610 8645,21628 8586,21662 8526,21697 8477,21746 8442,21806 8408,21865 8390,21933 8390,22002 L 8390,23568 8390,23568 C 8390,23637 8408,23705 8442,23764 8477,23824 8526,23873 8586,23908 8645,23942 8713,23960 8782,23960 L 12297,23960 12297,23960 C 12366,23960 12434,23942 12493,23908 12553,23873 12602,23824 12637,23764 12671,23705 12689,23637 12689,23568 L 12689,22001 12689,22002 12689,22002 C 12689,21933 12671,21865 12637,21806 12602,21746 12553,21697 12493,21662 12434,21628 12366,21610 12297,21610 L 8781,21610 Z"/>
        <path fill="none" stroke="rgb(102,102,102)" d="M 8781,21610 L 8782,21610 C 8713,21610 8645,21628 8586,21662 8526,21697 8477,21746 8442,21806 8408,21865 8390,21933 8390,22002 L 8390,23568 8390,23568 C 8390,23637 8408,23705 8442,23764 8477,23824 8526,23873 8586,23908 8645,23942 8713,23960 8782,23960 L 12297,23960 12297,23960 C 12366,23960 12434,23942 12493,23908 12553,23873 12602,23824 12637,23764 12671,23705 12689,23637 12689,23568 L 12689,22001 12689,22002 12689,22002 C 12689,21933 12671,21865 12637,21806 12602,21746 12553,21697 12493,21662 12434,21628 12366,21610 12297,21610 L 8781,21610 Z"/>
       </g>
      </g>
      <g class="com.sun.star.drawing.CustomShape">
       <g id="id19">
        <rect class="BoundingBox" stroke="none" fill="none" x="14171" y="21609" width="4302" height="2353"/>
        <path fill="rgb(102,102,102)" stroke="none" d="M 14563,21610 L 14564,21610 C 14495,21610 14427,21628 14368,21662 14308,21697 14259,21746 14224,21806 14190,21865 14172,21933 14172,22002 L 14172,23568 14172,23568 C 14172,23637 14190,23705 14224,23764 14259,23824 14308,23873 14368,23908 14427,23942 14495,23960 14564,23960 L 18079,23960 18079,23960 C 18148,23960 18216,23942 18275,23908 18335,23873 18384,23824 18419,23764 18453,23705 18471,23637 18471,23568 L 18471,22001 18471,22002 18471,22002 C 18471,21933 18453,21865 18419,21806 18384,21746 18335,21697 18275,21662 18216,21628 18148,21610 18079,21610 L 14563,21610 Z"/>
        <path fill="none" stroke="rgb(102,102,102)" d="M 14563,21610 L 14564,21610 C 14495,21610 14427,21628 14368,21662 14308,21697 14259,21746 14224,21806 14190,21865 14172,21933 14172,22002 L 14172,23568 14172,23568 C 14172,23637 14190,23705 14224,23764 14259,23824 14308,23873 14368,23908 14427,23942 14495,23960 14564,23960 L 18079,23960 18079,23960 C 18148,23960 18216,23942 18275,23908 18335,23873 18384,23824 18419,23764 18453,23705 18471,23637 18471,23568 L 18471,22001 18471,22002 18471,22002 C 18471,21933 18453,21865 18419,21806 18384,21746 18335,21697 18275,21662 18216,21628 18148,21610 18079,21610 L 14563,21610 Z"/>
       </g>
      </g>
      <g class="com.sun.star.drawing.CustomShape">
       <g id="id20">
        <rect class="BoundingBox" stroke="none" fill="none" x="19961" y="21609" width="4302" height="2353"/>
        <path fill="rgb(234,117,0)" stroke="none" d="M 20353,21610 L 20354,21610 C 20285,21610 20217,21628 20158,21662 20098,21697 20049,21746 20014,21806 19980,21865 19962,21933 19962,22002 L 19962,23568 19962,23568 C 19962,23637 19980,23705 20014,23764 20049,23824 20098,23873 20158,23908 20217,23942 20285,23960 20354,23960 L 23869,23960 23869,23960 C 23938,23960 24006,23942 24065,23908 24125,23873 24174,23824 24209,23764 24243,23705 24261,23637 24261,23568 L 24261,22001 24261,22002 24261,22002 C 24261,21933 24243,21865 24209,21806 24174,21746 24125,21697 24065,21662 24006,21628 23938,21610 23869,21610 L 20353,21610 Z"/>
        <path fill="none" stroke="rgb(234,117,0)" d="M 20353,21610 L 20354,21610 C 20285,21610 20217,21628 20158,21662 20098,21697 20049,21746 20014,21806 19980,21865 19962,21933 19962,22002 L 19962,23568 19962,23568 C 19962,23637 19980,23705 20014,23764 20049,23824 20098,23873 20158,23908 20217,23942 20285,23960 20354,23960 L 23869,23960 23869,23960 C 23938,23960 24006,23942 24065,23908 24125,23873 24174,23824 24209,23764 24243,23705 24261,23637 24261,23568 L 24261,22001 24261,22002 24261,22002 C 24261,21933 24243,21865 24209,21806 24174,21746 24125,21697 24065,21662 24006,21628 23938,21610 23869,21610 L 20353,21610 Z"/>
       </g>
      </g>
      <g class="com.sun.star.drawing.ClosedBezierShape">
       <g id="id21">
        <rect class="BoundingBox" stroke="none" fill="none" x="21829" y="3772" width="2034" height="3370"/>
        <path fill="rgb(0,0,0)" stroke="none" d="M 22846,7141 C 22534,7141 22287,7053 22104,6876 21921,6699 21830,6463 21830,6166 L 21830,4742 C 21830,4449 21921,4214 22104,4037 22287,3860 22534,3772 22846,3772 23157,3772 23404,3860 23587,4037 23770,4214 23862,4449 23862,4742 L 23862,6166 C 23862,6364 23820,6535 23736,6681 23652,6826 23534,6939 23383,7020 23231,7101 23052,7141 22846,7141 Z M 22846,6723 C 23013,6723 23147,6672 23248,6571 23348,6469 23398,6334 23398,6166 L 23398,4742 C 23398,4578 23348,4444 23248,4342 23147,4241 23013,4190 22846,4190 22678,4190 22544,4241 22443,4342 22343,4444 22293,4578 22293,4742 L 22293,6166 C 22293,6334 22343,6469 22443,6571 22544,6672 22678,6723 22846,6723 Z M 22846,5717 C 22762,5717 22693,5693 22641,5645 22589,5597 22562,5530 22562,5443 22562,5359 22589,5294 22641,5248 22693,5201 22762,5178 22846,5178 22929,5178 22998,5201 23050,5248 23103,5294 23129,5359 23129,5443 23129,5530 23103,5597 23050,5645 22998,5693 22929,5717 22846,5717 Z"/>
       </g>
      </g>
     </g>
    </g>
   </g>
  </g>
 </g>
</svg>