<?xml version="1.0" encoding="UTF-8"?>
<!DOCTYPE svg PUBLIC "-//W3C//DTD SVG 1.1//EN" "http://www.w3.org/Graphics/SVG/1.1/DTD/svg11.dtd">
<svg version="1.2" width="270mm" height="270mm" viewBox="0 0 27000 27000" preserveAspectRatio="xMidYMid" fill-rule="evenodd" stroke-width="28.222" stroke-linejoin="round" xmlns="http://www.w3.org/2000/svg" xmlns:ooo="http://xml.openoffice.org/svg/export" xmlns:xlink="http://www.w3.org/1999/xlink" xmlns:presentation="http://sun.com/xmlns/staroffice/presentation" xmlns:smil="http://www.w3.org/2001/SMIL20/" xmlns:anim="urn:oasis:names:tc:opendocument:xmlns:animation:1.0" xmlns:svg="urn:oasis:names:tc:opendocument:xmlns:svg-compatible:1.0" xml:space="preserve">
 <defs class="ClipPathGroup">
  <clipPath id="presentation_clip_path" clipPathUnits="userSpaceOnUse">
   <rect x="0" y="0" width="27000" height="27000"/>
  </clipPath>
  <clipPath id="presentation_clip_path_shrink" clipPathUnits="userSpaceOnUse">
   <rect x="27" y="27" width="26946" height="26946"/>
  </clipPath>
 </defs>
 <defs class="TextShapeIndex">
  <g ooo:slide="id1" ooo:id-list="id3 id4 id5 id6 id7 id8 id9"/>
 </defs>
 <defs class="EmbeddedBulletChars">
  <g id="bullet-char-template-57356" transform="scale(0.00048828125,-0.00048828125)">
   <path d="M 580,1141 L 1163,571 580,0 -4,571 580,1141 Z"/>
  </g>
  <g id="bullet-char-template-57354" transform="scale(0.00048828125,-0.00048828125)">
   <path d="M 8,1128 L 1137,1128 1137,0 8,0 8,1128 Z"/>
  </g>
  <g id="bullet-char-template-10146" transform="scale(0.00048828125,-0.00048828125)">
   <path d="M 174,0 L 602,739 174,1481 1456,739 174,0 Z M 1358,739 L 309,1346 659,739 1358,739 Z"/>
  </g>
  <g id="bullet-char-template-10132" transform="scale(0.00048828125,-0.00048828125)">
   <path d="M 2015,739 L 1276,0 717,0 1260,543 174,543 174,936 1260,936 717,1481 1274,1481 2015,739 Z"/>
  </g>
  <g id="bullet-char-template-10007" transform="scale(0.00048828125,-0.00048828125)">
   <path d="M 0,-2 C -7,14 -16,27 -25,37 L 356,567 C 262,823 215,952 215,954 215,979 228,992 255,992 264,992 276,990 289,987 310,991 331,999 354,1012 L 381,999 492,748 772,1049 836,1024 860,1049 C 881,1039 901,1025 922,1006 886,937 835,863 770,784 769,783 710,716 594,584 L 774,223 C 774,196 753,168 711,139 L 727,119 C 717,90 699,76 672,76 641,76 570,178 457,381 L 164,-76 C 142,-110 111,-127 72,-127 30,-127 9,-110 8,-76 1,-67 -2,-52 -2,-32 -2,-23 -1,-13 0,-2 Z"/>
  </g>
  <g id="bullet-char-template-10004" transform="scale(0.00048828125,-0.00048828125)">
   <path d="M 285,-33 C 182,-33 111,30 74,156 52,228 41,333 41,471 41,549 55,616 82,672 116,743 169,778 240,778 293,778 328,747 346,684 L 369,508 C 377,444 397,411 428,410 L 1163,1116 C 1174,1127 1196,1133 1229,1133 1271,1133 1292,1118 1292,1087 L 1292,965 C 1292,929 1282,901 1262,881 L 442,47 C 390,-6 338,-33 285,-33 Z"/>
  </g>
  <g id="bullet-char-template-9679" transform="scale(0.00048828125,-0.00048828125)">
   <path d="M 813,0 C 632,0 489,54 383,161 276,268 223,411 223,592 223,773 276,916 383,1023 489,1130 632,1184 813,1184 992,1184 1136,1130 1245,1023 1353,916 1407,772 1407,592 1407,412 1353,268 1245,161 1136,54 992,0 813,0 Z"/>
  </g>
  <g id="bullet-char-template-8226" transform="scale(0.00048828125,-0.00048828125)">
   <path d="M 346,457 C 273,457 209,483 155,535 101,586 74,649 74,723 74,796 101,859 155,911 209,963 273,989 346,989 419,989 480,963 531,910 582,859 608,796 608,723 608,648 583,586 532,535 482,483 420,457 346,457 Z"/>
  </g>
  <g id="bullet-char-template-8211" transform="scale(0.00048828125,-0.00048828125)">
   <path d="M -4,459 L 1135,459 1135,606 -4,606 -4,459 Z"/>
  </g>
  <g id="bullet-char-template-61548" transform="scale(0.00048828125,-0.00048828125)">
   <path d="M 173,740 C 173,903 231,1043 346,1159 462,1274 601,1332 765,1332 928,1332 1067,1274 1183,1159 1299,1043 1357,903 1357,740 1357,577 1299,437 1183,322 1067,206 928,148 765,148 601,148 462,206 346,322 231,437 173,577 173,740 Z"/>
  </g>
 </defs>
 <g>
  <g id="id2" class="Master_Slide">
   <g id="bg-id2" class="Background"/>
   <g id="bo-id2" class="BackgroundObjects"/>
  </g>
 </g>
 <g class="SlideGroup">
  <g>
   <g id="container-id1">
    <g id="id1" class="Slide" clip-path="url(#presentation_clip_path)">
     <g class="Page">
      <g class="com.sun.star.drawing.CustomShape">
       <g id="id3">
        <rect class="BoundingBox" stroke="none" fill="none" x="48" y="29" width="26863" height="26863"/>
        <path fill="rgb(102,102,102)" stroke="none" d="M 4525,30 L 4526,30 C 3740,30 2968,237 2287,630 1607,1023 1042,1588 649,2268 256,2949 49,3721 49,4507 L 49,22413 49,22413 C 49,23199 256,23971 649,24652 1042,25332 1607,25897 2287,26290 2968,26683 3740,26890 4526,26890 L 22432,26890 22432,26890 C 23218,26890 23990,26683 24671,26290 25351,25897 25916,25332 26309,24652 26702,23971 26909,23199 26909,22413 L 26909,4506 26909,4507 26909,4507 C 26909,3721 26702,2949 26309,2268 25916,1588 25351,1023 24671,630 23990,237 23218,30 22432,30 L 4525,30 Z"/>
        <path fill="none" stroke="rgb(102,102,102)" d="M 4525,30 L 4526,30 C 3740,30 2968,237 2287,630 1607,1023 1042,1588 649,2268 256,2949 49,3721 49,4507 L 49,22413 49,22413 C 49,23199 256,23971 649,24652 1042,25332 1607,25897 2287,26290 2968,26683 3740,26890 4526,26890 L 22432,26890 22432,26890 C 23218,26890 23990,26683 24671,26290 25351,25897 25916,25332 26309,24652 26702,23971 26909,23199 26909,22413 L 26909,4506 26909,4507 26909,4507 C 26909,3721 26702,2949 26309,2268 25916,1588 25351,1023 24671,630 23990,237 23218,30 22432,30 L 4525,30 Z"/>
       </g>
      </g>
      <g class="com.sun.star.drawing.CustomShape">
       <g id="id4">
        <rect class="BoundingBox" stroke="none" fill="none" x="4231" y="3604" width="18472" height="18472"/>
        <path fill="none" stroke="rgb(0,169,51)" stroke-width="1517" stroke-linejoin="round" d="M 13467,4363 C 14954,4363 16416,4755 17705,5499 18993,6243 20063,7313 20807,8601 21551,9890 21943,11352 21943,12839 21943,14327 21551,15789 20807,17078 20063,18366 18993,19436 17705,20180 16416,20924 14954,21316 13467,21316 11979,21316 10517,20924 9228,20180 7940,19436 6870,18366 6126,17078 5382,15789 4990,14327 4990,12840 4990,11352 5382,9890 6126,8601 6870,7313 7940,6243 9228,5499 10517,4755 11979,4363 13466,4363 L 13467,4363 Z"/>
       </g>
      </g>
      <g class="com.sun.star.drawing.CustomShape">
       <g id="id5">
        <rect class="BoundingBox" stroke="none" fill="none" x="8311" y="2526" width="6936" height="5793"/>
        <path fill="rgb(102,102,102)" stroke="none" d="M 15245,5422 L 15245,8317 8312,8317 8312,2527 15245,2527 15245,5422 Z"/>
        <path fill="none" stroke="rgb(102,102,102)" d="M 15245,5422 L 15245,8317 8312,8317 8312,2527 15245,2527 15245,5422 Z"/>
       </g>
      </g>
      <g class="com.sun.star.drawing.CustomShape">
       <g id="id6">
        <rect class="BoundingBox" stroke="none" fill="none" x="10651" y="1066" width="4631" height="7385"/>
        <path fill="rgb(0,169,51)" stroke="none" d="M 10652,4758 L 15280,1067 15280,8449 10652,4758 Z"/>
        <path fill="none" stroke="rgb(0,169,51)" d="M 10652,4758 L 15280,1067 15280,8449 10652,4758 Z"/>
       </g>
      </g>
      <g class="com.sun.star.drawing.PolyPolygonShape">
       <g id="id7">
        <rect class="BoundingBox" stroke="none" fill="none" x="16217" y="3996" width="1636" height="684"/>
        <path fill="rgb(102,102,102)" stroke="none" d="M 16218,3997 L 17848,4003 17851,4678 16218,3997 Z"/>
        <path fill="none" stroke="rgb(102,102,102)" d="M 16218,3997 L 17848,4003 17851,4678 16218,3997 Z"/>
       </g>
      </g>
      <g class="com.sun.star.drawing.CustomShape">
       <g id="id8">
        <rect class="BoundingBox" stroke="none" fill="none" x="5652" y="3738" width="2450" height="4210"/>
        <path fill="rgb(102,102,102)" stroke="none" d="M 7462,3739 L 8100,7946 5653,5819 7462,3739 7462,3739 Z"/>
        <path fill="none" stroke="rgb(102,102,102)" d="M 7462,3739 L 8100,7946 5653,5819 7462,3739 7462,3739 Z"/>
       </g>
      </g>
      <g class="com.sun.star.drawing.CustomShape">
       <g id="id9">
        <rect class="BoundingBox" stroke="none" fill="none" x="7796" y="4693" width="2756" height="2773"/>
        <path fill="rgb(102,102,102)" stroke="none" d="M 7797,4694 L 10550,7464 7797,7464 7797,4694 7797,4694 Z"/>
        <path fill="none" stroke="rgb(102,102,102)" d="M 7797,4694 L 10550,7464 7797,7464 7797,4694 7797,4694 Z"/>
       </g>
      </g>
     </g>
    </g>
   </g>
  </g>
 </g>
</svg>