<?xml version="1.0" encoding="UTF-8"?>
<!DOCTYPE svg PUBLIC "-//W3C//DTD SVG 1.1//EN" "http://www.w3.org/Graphics/SVG/1.1/DTD/svg11.dtd">
<svg version="1.2" width="268.6mm" height="268.6mm" viewBox="0 0 26860 26860" preserveAspectRatio="xMidYMid" fill-rule="evenodd" stroke-width="28.222" stroke-linejoin="round" xmlns="http://www.w3.org/2000/svg" xmlns:ooo="http://xml.openoffice.org/svg/export" xmlns:xlink="http://www.w3.org/1999/xlink" xmlns:presentation="http://sun.com/xmlns/staroffice/presentation" xmlns:smil="http://www.w3.org/2001/SMIL20/" xmlns:anim="urn:oasis:names:tc:opendocument:xmlns:animation:1.0" xmlns:svg="urn:oasis:names:tc:opendocument:xmlns:svg-compatible:1.0" xml:space="preserve">
<g id="CiccioNsvg" transform="scale(0.1)">
 <defs class="ClipPathGroup">
  <clipPath id="presentation_clip_path" clipPathUnits="userSpaceOnUse">
   <rect x="0" y="0" width="26860" height="26860"/>
  </clipPath>
  <clipPath id="presentation_clip_path_shrink" clipPathUnits="userSpaceOnUse">
   <rect x="26" y="26" width="26807" height="26807"/>
  </clipPath>
 </defs>
 <defs class="TextShapeIndex">
  <g ooo:slide="id1" ooo:id-list="id3 id4 id5 id6"/>
 </defs>
 <defs class="EmbeddedBulletChars">
  <g id="bullet-char-template-57356" transform="scale(0.00048828125,-0.00048828125)">
   <path d="M 580,1141 L 1163,571 580,0 -4,571 580,1141 Z"/>
  </g>
  <g id="bullet-char-template-57354" transform="scale(0.00048828125,-0.00048828125)">
   <path d="M 8,1128 L 1137,1128 1137,0 8,0 8,1128 Z"/>
  </g>
  <g id="bullet-char-template-10146" transform="scale(0.00048828125,-0.00048828125)">
   <path d="M 174,0 L 602,739 174,1481 1456,739 174,0 Z M 1358,739 L 309,1346 659,739 1358,739 Z"/>
  </g>
  <g id="bullet-char-template-10132" transform="scale(0.00048828125,-0.00048828125)">
   <path d="M 2015,739 L 1276,0 717,0 1260,543 174,543 174,936 1260,936 717,1481 1274,1481 2015,739 Z"/>
  </g>
  <g id="bullet-char-template-10007" transform="scale(0.00048828125,-0.00048828125)">
   <path d="M 0,-2 C -7,14 -16,27 -25,37 L 356,567 C 262,823 215,952 215,954 215,979 228,992 255,992 264,992 276,990 289,987 310,991 331,999 354,1012 L 381,999 492,748 772,1049 836,1024 860,1049 C 881,1039 901,1025 922,1006 886,937 835,863 770,784 769,783 710,716 594,584 L 774,223 C 774,196 753,168 711,139 L 727,119 C 717,90 699,76 672,76 641,76 570,178 457,381 L 164,-76 C 142,-110 111,-127 72,-127 30,-127 9,-110 8,-76 1,-67 -2,-52 -2,-32 -2,-23 -1,-13 0,-2 Z"/>
  </g>
  <g id="bullet-char-template-10004" transform="scale(0.00048828125,-0.00048828125)">
   <path d="M 285,-33 C 182,-33 111,30 74,156 52,228 41,333 41,471 41,549 55,616 82,672 116,743 169,778 240,778 293,778 328,747 346,684 L 369,508 C 377,444 397,411 428,410 L 1163,1116 C 1174,1127 1196,1133 1229,1133 1271,1133 1292,1118 1292,1087 L 1292,965 C 1292,929 1282,901 1262,881 L 442,47 C 390,-6 338,-33 285,-33 Z"/>
  </g>
  <g id="bullet-char-template-9679" transform="scale(0.00048828125,-0.00048828125)">
   <path d="M 813,0 C 632,0 489,54 383,161 276,268 223,411 223,592 223,773 276,916 383,1023 489,1130 632,1184 813,1184 992,1184 1136,1130 1245,1023 1353,916 1407,772 1407,592 1407,412 1353,268 1245,161 1136,54 992,0 813,0 Z"/>
  </g>
  <g id="bullet-char-template-8226" transform="scale(0.00048828125,-0.00048828125)">
   <path d="M 346,457 C 273,457 209,483 155,535 101,586 74,649 74,723 74,796 101,859 155,911 209,963 273,989 346,989 419,989 480,963 531,910 582,859 608,796 608,723 608,648 583,586 532,535 482,483 420,457 346,457 Z"/>
  </g>
  <g id="bullet-char-template-8211" transform="scale(0.00048828125,-0.00048828125)">
   <path d="M -4,459 L 1135,459 1135,606 -4,606 -4,459 Z"/>
  </g>
  <g id="bullet-char-template-61548" transform="scale(0.00048828125,-0.00048828125)">
   <path d="M 173,740 C 173,903 231,1043 346,1159 462,1274 601,1332 765,1332 928,1332 1067,1274 1183,1159 1299,1043 1357,903 1357,740 1357,577 1299,437 1183,322 1067,206 928,148 765,148 601,148 462,206 346,322 231,437 173,577 173,740 Z"/>
  </g>
 </defs>
 <g>
  <g id="id2" class="Master_Slide">
   <g id="bg-id2" class="Background"/>
   <g id="bo-id2" class="BackgroundObjects"/>
  </g>
 </g>
 <g class="SlideGroup">
  <g>
   <g id="container-id1">
    <g id="id1" class="Slide" clip-path="url(#presentation_clip_path)">
     <g class="Page">
      <g class="com.sun.star.drawing.CustomShape">
       <g id="id3">
        <rect class="BoundingBox" stroke="none" fill="none" x="-2" y="-2" width="26863" height="26863"/>
        <path fill="rgb(102,102,102)" stroke="none" d="M 4475,-1 L 4476,-1 C 3690,-1 2918,206 2237,599 1557,992 992,1557 599,2237 206,2918 -1,3690 -1,4476 L -1,22382 -1,22382 C -1,23168 206,23940 599,24621 992,25301 1557,25866 2237,26259 2918,26652 3690,26859 4476,26859 L 22382,26859 22382,26859 C 23168,26859 23940,26652 24621,26259 25301,25866 25866,25301 26259,24621 26652,23940 26859,23168 26859,22382 L 26859,4475 26859,4476 26859,4476 C 26859,3690 26652,2918 26259,2237 25866,1557 25301,992 24621,599 23940,206 23168,-1 22382,-1 L 4475,-1 Z"/>
        <path fill="none" stroke="rgb(102,102,102)" d="M 4475,-1 L 4476,-1 C 3690,-1 2918,206 2237,599 1557,992 992,1557 599,2237 206,2918 -1,3690 -1,4476 L -1,22382 -1,22382 C -1,23168 206,23940 599,24621 992,25301 1557,25866 2237,26259 2918,26652 3690,26859 4476,26859 L 22382,26859 22382,26859 C 23168,26859 23940,26652 24621,26259 25301,25866 25866,25301 26259,24621 26652,23940 26859,23168 26859,22382 L 26859,4475 26859,4476 26859,4476 C 26859,3690 26652,2918 26259,2237 25866,1557 25301,992 24621,599 23940,206 23168,-1 22382,-1 L 4475,-1 Z"/>
       </g>
      </g>
      <g class="com.sun.star.drawing.CustomShape">
       <g id="id4">
        <rect class="BoundingBox" stroke="none" fill="none" x="3020" y="2242" width="18034" height="22227"/>
        <path fill="none" stroke="rgb(94,185,30)" stroke-width="1517" stroke-linejoin="round" d="M 6531,3001 L 6532,3001 C 6048,3001 5574,3128 5155,3370 4737,3611 4389,3959 4148,4377 3906,4796 3779,5270 3779,5754 L 3779,20956 3779,20957 C 3779,21440 3906,21914 4148,22333 4389,22751 4737,23099 5155,23340 5574,23582 6048,23709 6532,23709 L 17541,23709 17542,23709 C 18025,23709 18499,23582 18918,23340 19336,23099 19684,22751 19925,22333 20167,21914 20294,21440 20294,20957 L 20294,5753 20294,5754 20294,5754 C 20294,5270 20167,4796 19925,4377 19684,3959 19336,3611 18918,3370 18499,3128 18025,3001 17542,3001 L 6531,3001 Z"/>
       </g>
      </g>
      <g class="com.sun.star.drawing.CustomShape">
       <g id="id5">
        <rect class="BoundingBox" stroke="none" fill="none" x="17952" y="10403" width="5793" height="5793"/>
        <path fill="rgb(102,102,102)" stroke="none" d="M 20848,16194 L 17953,16194 17953,10404 23743,10404 23743,16194 20848,16194 Z"/>
        <path fill="none" stroke="rgb(102,102,102)" d="M 20848,16194 L 17953,16194 17953,10404 23743,10404 23743,16194 20848,16194 Z"/>
       </g>
      </g>
      <g class="com.sun.star.drawing.CustomShape">
       <g id="id6">
        <rect class="BoundingBox" stroke="none" fill="none" x="15180" y="10850" width="11433" height="4981"/>
        <path fill="rgb(255,212,40)" stroke="none" d="M 15181,12095 L 23753,12095 23753,10851 26611,13340 23753,15829 23753,14584 15181,14584 15181,12095 Z"/>
        <path fill="none" stroke="rgb(255,212,40)" d="M 15181,12095 L 23753,12095 23753,10851 26611,13340 23753,15829 23753,14584 15181,14584 15181,12095 Z"/>
       </g>
      </g>
     </g>
    </g>
   </g>
  </g>
 </g>
 </g>
</svg>
