<?xml version="1.0" encoding="UTF-8"?>
<!DOCTYPE svg PUBLIC "-//W3C//DTD SVG 1.1//EN" "http://www.w3.org/Graphics/SVG/1.1/DTD/svg11.dtd">
<svg version="1.2" width="268.6mm" height="268.6mm" viewBox="0 0 26860 26860" preserveAspectRatio="xMidYMid" fill-rule="evenodd" stroke-width="28.222" stroke-linejoin="round" xmlns="http://www.w3.org/2000/svg" xmlns:ooo="http://xml.openoffice.org/svg/export" xmlns:xlink="http://www.w3.org/1999/xlink" xmlns:presentation="http://sun.com/xmlns/staroffice/presentation" xmlns:smil="http://www.w3.org/2001/SMIL20/" xmlns:anim="urn:oasis:names:tc:opendocument:xmlns:animation:1.0" xmlns:svg="urn:oasis:names:tc:opendocument:xmlns:svg-compatible:1.0" xml:space="preserve">
 <defs class="ClipPathGroup">
  <clipPath id="presentation_clip_path" clipPathUnits="userSpaceOnUse">
   <rect x="0" y="0" width="26860" height="26860"/>
  </clipPath>
  <clipPath id="presentation_clip_path_shrink" clipPathUnits="userSpaceOnUse">
   <rect x="26" y="26" width="26807" height="26807"/>
  </clipPath>
 </defs>
 <defs class="TextShapeIndex">
  <g ooo:slide="id1" ooo:id-list="id3 id4 id5 id6 id7 id8"/>
 </defs>
 <defs class="EmbeddedBulletChars">
  <g id="bullet-char-template-57356" transform="scale(0.00048828125,-0.00048828125)">
   <path d="M 580,1141 L 1163,571 580,0 -4,571 580,1141 Z"/>
  </g>
  <g id="bullet-char-template-57354" transform="scale(0.00048828125,-0.00048828125)">
   <path d="M 8,1128 L 1137,1128 1137,0 8,0 8,1128 Z"/>
  </g>
  <g id="bullet-char-template-10146" transform="scale(0.00048828125,-0.00048828125)">
   <path d="M 174,0 L 602,739 174,1481 1456,739 174,0 Z M 1358,739 L 309,1346 659,739 1358,739 Z"/>
  </g>
  <g id="bullet-char-template-10132" transform="scale(0.00048828125,-0.00048828125)">
   <path d="M 2015,739 L 1276,0 717,0 1260,543 174,543 174,936 1260,936 717,1481 1274,1481 2015,739 Z"/>
  </g>
  <g id="bullet-char-template-10007" transform="scale(0.00048828125,-0.00048828125)">
   <path d="M 0,-2 C -7,14 -16,27 -25,37 L 356,567 C 262,823 215,952 215,954 215,979 228,992 255,992 264,992 276,990 289,987 310,991 331,999 354,1012 L 381,999 492,748 772,1049 836,1024 860,1049 C 881,1039 901,1025 922,1006 886,937 835,863 770,784 769,783 710,716 594,584 L 774,223 C 774,196 753,168 711,139 L 727,119 C 717,90 699,76 672,76 641,76 570,178 457,381 L 164,-76 C 142,-110 111,-127 72,-127 30,-127 9,-110 8,-76 1,-67 -2,-52 -2,-32 -2,-23 -1,-13 0,-2 Z"/>
  </g>
  <g id="bullet-char-template-10004" transform="scale(0.00048828125,-0.00048828125)">
   <path d="M 285,-33 C 182,-33 111,30 74,156 52,228 41,333 41,471 41,549 55,616 82,672 116,743 169,778 240,778 293,778 328,747 346,684 L 369,508 C 377,444 397,411 428,410 L 1163,1116 C 1174,1127 1196,1133 1229,1133 1271,1133 1292,1118 1292,1087 L 1292,965 C 1292,929 1282,901 1262,881 L 442,47 C 390,-6 338,-33 285,-33 Z"/>
  </g>
  <g id="bullet-char-template-9679" transform="scale(0.00048828125,-0.00048828125)">
   <path d="M 813,0 C 632,0 489,54 383,161 276,268 223,411 223,592 223,773 276,916 383,1023 489,1130 632,1184 813,1184 992,1184 1136,1130 1245,1023 1353,916 1407,772 1407,592 1407,412 1353,268 1245,161 1136,54 992,0 813,0 Z"/>
  </g>
  <g id="bullet-char-template-8226" transform="scale(0.00048828125,-0.00048828125)">
   <path d="M 346,457 C 273,457 209,483 155,535 101,586 74,649 74,723 74,796 101,859 155,911 209,963 273,989 346,989 419,989 480,963 531,910 582,859 608,796 608,723 608,648 583,586 532,535 482,483 420,457 346,457 Z"/>
  </g>
  <g id="bullet-char-template-8211" transform="scale(0.00048828125,-0.00048828125)">
   <path d="M -4,459 L 1135,459 1135,606 -4,606 -4,459 Z"/>
  </g>
  <g id="bullet-char-template-61548" transform="scale(0.00048828125,-0.00048828125)">
   <path d="M 173,740 C 173,903 231,1043 346,1159 462,1274 601,1332 765,1332 928,1332 1067,1274 1183,1159 1299,1043 1357,903 1357,740 1357,577 1299,437 1183,322 1067,206 928,148 765,148 601,148 462,206 346,322 231,437 173,577 173,740 Z"/>
  </g>
 </defs>
 <g>
  <g id="id2" class="Master_Slide">
   <g id="bg-id2" class="Background"/>
   <g id="bo-id2" class="BackgroundObjects"/>
  </g>
 </g>
 <g class="SlideGroup">
  <g>
   <g id="container-id1">
    <g id="id1" class="Slide" clip-path="url(#presentation_clip_path)">
     <g class="Page">
      <g class="com.sun.star.drawing.CustomShape">
       <g id="id3">
        <rect class="BoundingBox" stroke="none" fill="none" x="0" y="0" width="26862" height="26862"/>
        <path fill="rgb(168,201,238)" stroke="none" d="M 4476,0 L 4477,0 C 3691,0 2919,207 2238,600 1558,993 993,1558 600,2238 207,2919 0,3691 0,4477 L 0,22384 0,22384 C 0,23170 207,23942 600,24623 993,25303 1558,25868 2238,26261 2919,26654 3691,26861 4477,26861 L 22384,26861 22384,26861 C 23170,26861 23942,26654 24623,26261 25303,25868 25868,25303 26261,24623 26654,23942 26861,23170 26861,22384 L 26861,4476 26861,4477 26861,4477 C 26861,3691 26654,2919 26261,2238 25868,1558 25303,993 24623,600 23942,207 23170,0 22384,0 L 4476,0 Z"/>
       </g>
      </g>
      <g class="com.sun.star.drawing.CustomShape">
       <g id="id4">
        <rect class="BoundingBox" stroke="none" fill="none" x="3150" y="3208" width="6190" height="6240"/>
        <path fill="rgb(52,101,164)" stroke="none" d="M 4181,3208 L 4182,3208 C 4000,3208 3823,3256 3666,3346 3509,3437 3379,3567 3288,3724 3198,3881 3150,4058 3150,4240 L 3150,8415 3150,8416 C 3150,8597 3198,8774 3288,8931 3379,9088 3509,9218 3666,9309 3823,9399 4000,9447 4182,9447 L 8307,9446 8308,9447 C 8489,9447 8666,9399 8823,9309 8980,9218 9110,9088 9201,8931 9291,8774 9339,8597 9339,8416 L 9339,4239 9339,4240 9339,4240 C 9339,4058 9291,3881 9201,3724 9110,3567 8980,3437 8823,3346 8666,3256 8489,3208 8308,3208 L 4181,3208 Z"/>
       </g>
      </g>
      <g class="com.sun.star.drawing.CustomShape">
       <g id="id5">
        <rect class="BoundingBox" stroke="none" fill="none" x="3149" y="11907" width="6192" height="6242"/>
        <path fill="rgb(52,101,164)" stroke="none" d="M 4181,11908 L 4182,11908 C 4000,11908 3823,11956 3666,12046 3509,12137 3379,12267 3288,12424 3198,12581 3150,12758 3150,12940 L 3150,17115 3150,17116 C 3150,17297 3198,17474 3288,17631 3379,17788 3509,17918 3666,18009 3823,18099 4000,18147 4182,18147 L 8307,18146 8308,18147 C 8489,18147 8666,18099 8823,18009 8980,17918 9110,17788 9201,17631 9291,17474 9339,17297 9339,17116 L 9339,12939 9339,12940 9339,12940 C 9339,12758 9291,12581 9201,12424 9110,12267 8980,12137 8823,12046 8666,11956 8489,11908 8308,11908 L 4181,11908 Z"/>
        <path fill="none" stroke="rgb(52,101,164)" d="M 4181,11908 L 4182,11908 C 4000,11908 3823,11956 3666,12046 3509,12137 3379,12267 3288,12424 3198,12581 3150,12758 3150,12940 L 3150,17115 3150,17116 C 3150,17297 3198,17474 3288,17631 3379,17788 3509,17918 3666,18009 3823,18099 4000,18147 4182,18147 L 8307,18146 8308,18147 C 8489,18147 8666,18099 8823,18009 8980,17918 9110,17788 9201,17631 9291,17474 9339,17297 9339,17116 L 9339,12939 9339,12940 9339,12940 C 9339,12758 9291,12581 9201,12424 9110,12267 8980,12137 8823,12046 8666,11956 8489,11908 8308,11908 L 4181,11908 Z"/>
       </g>
      </g>
      <g class="com.sun.star.drawing.CustomShape">
       <g id="id6">
        <rect class="BoundingBox" stroke="none" fill="none" x="3369" y="21543" width="2363" height="2313"/>
        <path fill="rgb(255,0,0)" stroke="none" d="M 5731,22699 C 5731,22902 5676,23101 5573,23277 5469,23453 5320,23599 5141,23700 4961,23802 4757,23855 4550,23855 4343,23855 4139,23802 3960,23700 3780,23599 3631,23453 3527,23277 3424,23101 3369,22902 3369,22699 3369,22496 3424,22297 3527,22121 3631,21945 3780,21799 3959,21698 4139,21596 4343,21543 4550,21543 4757,21543 4961,21596 5140,21698 5320,21799 5469,21945 5573,22121 5676,22297 5731,22496 5731,22699 L 5731,22699 Z"/>
       </g>
      </g>
      <g class="com.sun.star.drawing.CustomShape">
       <g id="id7">
        <rect class="BoundingBox" stroke="none" fill="none" x="6744" y="21784" width="17967" height="1915"/>
        <path fill="rgb(128,128,128)" stroke="none" d="M 15727,23698 L 6744,23698 6744,21784 24710,21784 24710,23698 15727,23698 Z"/>
       </g>
      </g>
      <g class="com.sun.star.drawing.CustomShape">
       <g id="id8">
        <rect class="BoundingBox" stroke="none" fill="none" x="28728" y="17578" width="1002" height="1002"/>
        <path fill="rgb(114,159,207)" stroke="none" d="M 29229,18578 L 28729,18578 28729,17579 29728,17579 29728,18578 29229,18578 Z"/>
        <path fill="none" stroke="rgb(52,101,164)" d="M 29229,18578 L 28729,18578 28729,17579 29728,17579 29728,18578 29229,18578 Z"/>
       </g>
      </g>
     </g>
    </g>
   </g>
  </g>
 </g>
</svg>