<?xml version="1.0" encoding="UTF-8"?>
<!DOCTYPE svg PUBLIC "-//W3C//DTD SVG 1.1//EN" "http://www.w3.org/Graphics/SVG/1.1/DTD/svg11.dtd">
<svg version="1.2" width="268.6mm" height="268.6mm" viewBox="0 0 26860 26860" preserveAspectRatio="xMidYMid" fill-rule="evenodd" stroke-width="28.222" stroke-linejoin="round" xmlns="http://www.w3.org/2000/svg" xmlns:ooo="http://xml.openoffice.org/svg/export" xmlns:xlink="http://www.w3.org/1999/xlink" xmlns:presentation="http://sun.com/xmlns/staroffice/presentation" xmlns:smil="http://www.w3.org/2001/SMIL20/" xmlns:anim="urn:oasis:names:tc:opendocument:xmlns:animation:1.0" xmlns:svg="urn:oasis:names:tc:opendocument:xmlns:svg-compatible:1.0" xml:space="preserve">
 <defs class="ClipPathGroup">
  <clipPath id="presentation_clip_path" clipPathUnits="userSpaceOnUse">
   <rect x="0" y="0" width="26860" height="26860"/>
  </clipPath>
  <clipPath id="presentation_clip_path_shrink" clipPathUnits="userSpaceOnUse">
   <rect x="26" y="26" width="26807" height="26807"/>
  </clipPath>
 </defs>
 <defs class="TextShapeIndex">
  <g ooo:slide="id1" ooo:id-list="id3 id4 id5 id6"/>
 </defs>
 <defs class="EmbeddedBulletChars">
  <g id="bullet-char-template-57356" transform="scale(0.00048828125,-0.00048828125)">
   <path d="M 580,1141 L 1163,571 580,0 -4,571 580,1141 Z"/>
  </g>
  <g id="bullet-char-template-57354" transform="scale(0.00048828125,-0.00048828125)">
   <path d="M 8,1128 L 1137,1128 1137,0 8,0 8,1128 Z"/>
  </g>
  <g id="bullet-char-template-10146" transform="scale(0.00048828125,-0.00048828125)">
   <path d="M 174,0 L 602,739 174,1481 1456,739 174,0 Z M 1358,739 L 309,1346 659,739 1358,739 Z"/>
  </g>
  <g id="bullet-char-template-10132" transform="scale(0.00048828125,-0.00048828125)">
   <path d="M 2015,739 L 1276,0 717,0 1260,543 174,543 174,936 1260,936 717,1481 1274,1481 2015,739 Z"/>
  </g>
  <g id="bullet-char-template-10007" transform="scale(0.00048828125,-0.00048828125)">
   <path d="M 0,-2 C -7,14 -16,27 -25,37 L 356,567 C 262,823 215,952 215,954 215,979 228,992 255,992 264,992 276,990 289,987 310,991 331,999 354,1012 L 381,999 492,748 772,1049 836,1024 860,1049 C 881,1039 901,1025 922,1006 886,937 835,863 770,784 769,783 710,716 594,584 L 774,223 C 774,196 753,168 711,139 L 727,119 C 717,90 699,76 672,76 641,76 570,178 457,381 L 164,-76 C 142,-110 111,-127 72,-127 30,-127 9,-110 8,-76 1,-67 -2,-52 -2,-32 -2,-23 -1,-13 0,-2 Z"/>
  </g>
  <g id="bullet-char-template-10004" transform="scale(0.00048828125,-0.00048828125)">
   <path d="M 285,-33 C 182,-33 111,30 74,156 52,228 41,333 41,471 41,549 55,616 82,672 116,743 169,778 240,778 293,778 328,747 346,684 L 369,508 C 377,444 397,411 428,410 L 1163,1116 C 1174,1127 1196,1133 1229,1133 1271,1133 1292,1118 1292,1087 L 1292,965 C 1292,929 1282,901 1262,881 L 442,47 C 390,-6 338,-33 285,-33 Z"/>
  </g>
  <g id="bullet-char-template-9679" transform="scale(0.00048828125,-0.00048828125)">
   <path d="M 813,0 C 632,0 489,54 383,161 276,268 223,411 223,592 223,773 276,916 383,1023 489,1130 632,1184 813,1184 992,1184 1136,1130 1245,1023 1353,916 1407,772 1407,592 1407,412 1353,268 1245,161 1136,54 992,0 813,0 Z"/>
  </g>
  <g id="bullet-char-template-8226" transform="scale(0.00048828125,-0.00048828125)">
   <path d="M 346,457 C 273,457 209,483 155,535 101,586 74,649 74,723 74,796 101,859 155,911 209,963 273,989 346,989 419,989 480,963 531,910 582,859 608,796 608,723 608,648 583,586 532,535 482,483 420,457 346,457 Z"/>
  </g>
  <g id="bullet-char-template-8211" transform="scale(0.00048828125,-0.00048828125)">
   <path d="M -4,459 L 1135,459 1135,606 -4,606 -4,459 Z"/>
  </g>
  <g id="bullet-char-template-61548" transform="scale(0.00048828125,-0.00048828125)">
   <path d="M 173,740 C 173,903 231,1043 346,1159 462,1274 601,1332 765,1332 928,1332 1067,1274 1183,1159 1299,1043 1357,903 1357,740 1357,577 1299,437 1183,322 1067,206 928,148 765,148 601,148 462,206 346,322 231,437 173,577 173,740 Z"/>
  </g>
 </defs>
 <g>
  <g id="id2" class="Master_Slide">
   <g id="bg-id2" class="Background"/>
   <g id="bo-id2" class="BackgroundObjects"/>
  </g>
 </g>
 <g class="SlideGroup">
  <g>
   <g id="container-id1">
    <g id="id1" class="Slide" clip-path="url(#presentation_clip_path)">
     <g class="Page">
      <g class="com.sun.star.drawing.CustomShape">
       <g id="id3">
        <rect class="BoundingBox" stroke="none" fill="none" x="-2" y="-2" width="26863" height="26863"/>
        <path fill="rgb(178,178,178)" stroke="none" d="M 4475,-1 L 4476,-1 C 3690,-1 2918,206 2237,599 1557,992 992,1557 599,2237 206,2918 -1,3690 -1,4476 L -1,22382 -1,22382 C -1,23168 206,23940 599,24621 992,25301 1557,25866 2237,26259 2918,26652 3690,26859 4476,26859 L 22382,26859 22382,26859 C 23168,26859 23940,26652 24621,26259 25301,25866 25866,25301 26259,24621 26652,23940 26859,23168 26859,22382 L 26859,4475 26859,4476 26859,4476 C 26859,3690 26652,2918 26259,2237 25866,1557 25301,992 24621,599 23940,206 23168,-1 22382,-1 L 4475,-1 Z"/>
        <path fill="none" stroke="rgb(102,102,102)" d="M 4475,-1 L 4476,-1 C 3690,-1 2918,206 2237,599 1557,992 992,1557 599,2237 206,2918 -1,3690 -1,4476 L -1,22382 -1,22382 C -1,23168 206,23940 599,24621 992,25301 1557,25866 2237,26259 2918,26652 3690,26859 4476,26859 L 22382,26859 22382,26859 C 23168,26859 23940,26652 24621,26259 25301,25866 25866,25301 26259,24621 26652,23940 26859,23168 26859,22382 L 26859,4475 26859,4476 26859,4476 C 26859,3690 26652,2918 26259,2237 25866,1557 25301,992 24621,599 23940,206 23168,-1 22382,-1 L 4475,-1 Z"/>
       </g>
      </g>
      <g class="com.sun.star.drawing.ClosedBezierShape">
       <g id="id4">
        <rect class="BoundingBox" stroke="none" fill="none" x="1588" y="3727" width="13147" height="12586"/>
        <path fill="rgb(255,222,89)" stroke="none" d="M 6442,10940 C 6024,10940 5891,10788 5967,10598 L 7961,5682 8018,5682 9842,10940 6442,10940 Z M 4295,14907 L 5435,11965 C 5530,11718 5644,11547 6100,11547 L 10070,11547 11267,15040 C 11533,15818 10773,15818 9861,15875 9747,15989 9747,16198 9861,16312 10564,16293 11609,16217 12349,16217 13128,16217 13945,16293 14648,16312 14762,16198 14762,15989 14648,15875 13907,15818 13280,15742 12938,14774 L 8968,3727 C 8683,3898 8227,4107 7980,4107 L 3574,14470 C 3080,15628 2510,15818 1674,15875 1560,15989 1560,16198 1674,16312 2377,16293 2814,16217 3555,16217 4333,16217 4903,16293 5606,16312 5720,16198 5720,15989 5606,15875 4884,15837 3991,15704 4295,14907 Z"/>
       </g>
      </g>
      <g class="com.sun.star.drawing.ClosedBezierShape">
       <g id="id5">
        <rect class="BoundingBox" stroke="none" fill="none" x="10890" y="12925" width="10660" height="11984"/>
        <path fill="rgb(22,130,83)" stroke="none" d="M 19389,18677 C 20315,18181 20932,17273 20932,16041 20932,14141 19389,12925 16511,12925 L 10891,12925 10891,24908 16853,24908 C 19938,24908 21548,23710 21548,21656 21548,20098 20675,19088 19389,18677 Z M 16271,14672 C 17813,14672 18687,15219 18687,16332 18687,17427 17813,17975 16271,17975 L 13118,17975 13118,14672 16271,14672 Z M 13118,23162 L 13118,19704 16716,19704 C 18396,19704 19304,20235 19304,21433 19304,22631 18396,23162 16716,23162 L 13118,23162 Z"/>
       </g>
      </g>
      <g class="com.sun.star.drawing.ClosedBezierShape">
       <g id="id6">
        <rect class="BoundingBox" stroke="none" fill="none" x="14212" y="2719" width="10455" height="12680"/>
        <path fill="rgb(255,64,0)" fill-opacity="0.949" stroke="none" d="M 22506,13374 L 22640,12801 C 20882,14004 19582,14500 18245,14500 16735,14500 15779,13355 15779,11541 15779,7569 18588,3617 21417,3617 22563,3617 23137,4323 23251,5832 L 24665,4629 C 24494,3311 23806,2719 22430,2719 20767,2719 18837,3693 17155,5373 15302,7226 14212,9765 14212,12247 14212,14214 15302,15398 17136,15398 18780,15398 20863,14615 22506,13374 Z"/>
       </g>
      </g>
     </g>
    </g>
   </g>
  </g>
 </g>
</svg>