<?xml version="1.0" encoding="UTF-8"?>
<!DOCTYPE svg PUBLIC "-//W3C//DTD SVG 1.1//EN" "http://www.w3.org/Graphics/SVG/1.1/DTD/svg11.dtd">
<svg version="1.2" width="268mm" height="268mm" viewBox="0 0 26800 26800" preserveAspectRatio="xMidYMid" fill-rule="evenodd" stroke-width="28.222" stroke-linejoin="round" xmlns="http://www.w3.org/2000/svg" xmlns:ooo="http://xml.openoffice.org/svg/export" xmlns:xlink="http://www.w3.org/1999/xlink" xmlns:presentation="http://sun.com/xmlns/staroffice/presentation" xmlns:smil="http://www.w3.org/2001/SMIL20/" xmlns:anim="urn:oasis:names:tc:opendocument:xmlns:animation:1.0" xmlns:svg="urn:oasis:names:tc:opendocument:xmlns:svg-compatible:1.0" xml:space="preserve">
 <defs class="ClipPathGroup">
  <clipPath id="presentation_clip_path" clipPathUnits="userSpaceOnUse">
   <rect x="0" y="0" width="26800" height="26800"/>
  </clipPath>
  <clipPath id="presentation_clip_path_shrink" clipPathUnits="userSpaceOnUse">
   <rect x="26" y="26" width="26747" height="26747"/>
  </clipPath>
 </defs>
 <defs class="TextShapeIndex">
  <g ooo:slide="id1" ooo:id-list="id3 id4 id5 id6 id7 id8"/>
 </defs>
 <defs class="EmbeddedBulletChars">
  <g id="bullet-char-template-57356" transform="scale(0.00048828125,-0.00048828125)">
   <path d="M 580,1141 L 1163,571 580,0 -4,571 580,1141 Z"/>
  </g>
  <g id="bullet-char-template-57354" transform="scale(0.00048828125,-0.00048828125)">
   <path d="M 8,1128 L 1137,1128 1137,0 8,0 8,1128 Z"/>
  </g>
  <g id="bullet-char-template-10146" transform="scale(0.00048828125,-0.00048828125)">
   <path d="M 174,0 L 602,739 174,1481 1456,739 174,0 Z M 1358,739 L 309,1346 659,739 1358,739 Z"/>
  </g>
  <g id="bullet-char-template-10132" transform="scale(0.00048828125,-0.00048828125)">
   <path d="M 2015,739 L 1276,0 717,0 1260,543 174,543 174,936 1260,936 717,1481 1274,1481 2015,739 Z"/>
  </g>
  <g id="bullet-char-template-10007" transform="scale(0.00048828125,-0.00048828125)">
   <path d="M 0,-2 C -7,14 -16,27 -25,37 L 356,567 C 262,823 215,952 215,954 215,979 228,992 255,992 264,992 276,990 289,987 310,991 331,999 354,1012 L 381,999 492,748 772,1049 836,1024 860,1049 C 881,1039 901,1025 922,1006 886,937 835,863 770,784 769,783 710,716 594,584 L 774,223 C 774,196 753,168 711,139 L 727,119 C 717,90 699,76 672,76 641,76 570,178 457,381 L 164,-76 C 142,-110 111,-127 72,-127 30,-127 9,-110 8,-76 1,-67 -2,-52 -2,-32 -2,-23 -1,-13 0,-2 Z"/>
  </g>
  <g id="bullet-char-template-10004" transform="scale(0.00048828125,-0.00048828125)">
   <path d="M 285,-33 C 182,-33 111,30 74,156 52,228 41,333 41,471 41,549 55,616 82,672 116,743 169,778 240,778 293,778 328,747 346,684 L 369,508 C 377,444 397,411 428,410 L 1163,1116 C 1174,1127 1196,1133 1229,1133 1271,1133 1292,1118 1292,1087 L 1292,965 C 1292,929 1282,901 1262,881 L 442,47 C 390,-6 338,-33 285,-33 Z"/>
  </g>
  <g id="bullet-char-template-9679" transform="scale(0.00048828125,-0.00048828125)">
   <path d="M 813,0 C 632,0 489,54 383,161 276,268 223,411 223,592 223,773 276,916 383,1023 489,1130 632,1184 813,1184 992,1184 1136,1130 1245,1023 1353,916 1407,772 1407,592 1407,412 1353,268 1245,161 1136,54 992,0 813,0 Z"/>
  </g>
  <g id="bullet-char-template-8226" transform="scale(0.00048828125,-0.00048828125)">
   <path d="M 346,457 C 273,457 209,483 155,535 101,586 74,649 74,723 74,796 101,859 155,911 209,963 273,989 346,989 419,989 480,963 531,910 582,859 608,796 608,723 608,648 583,586 532,535 482,483 420,457 346,457 Z"/>
  </g>
  <g id="bullet-char-template-8211" transform="scale(0.00048828125,-0.00048828125)">
   <path d="M -4,459 L 1135,459 1135,606 -4,606 -4,459 Z"/>
  </g>
  <g id="bullet-char-template-61548" transform="scale(0.00048828125,-0.00048828125)">
   <path d="M 173,740 C 173,903 231,1043 346,1159 462,1274 601,1332 765,1332 928,1332 1067,1274 1183,1159 1299,1043 1357,903 1357,740 1357,577 1299,437 1183,322 1067,206 928,148 765,148 601,148 462,206 346,322 231,437 173,577 173,740 Z"/>
  </g>
 </defs>
 <g>
  <g id="id2" class="Master_Slide">
   <g id="bg-id2" class="Background"/>
   <g id="bo-id2" class="BackgroundObjects"/>
  </g>
 </g>
 <g class="SlideGroup">
  <g>
   <g id="container-id1">
    <g id="id1" class="Slide" clip-path="url(#presentation_clip_path)">
     <g class="Page">
      <g class="com.sun.star.drawing.CustomShape">
       <g id="id3">
        <rect class="BoundingBox" stroke="none" fill="none" x="-1" y="-1" width="26804" height="26804"/>
        <path fill="rgb(102,102,102)" stroke="none" d="M 4466,0 L 4467,0 C 3683,0 2912,206 2233,598 1554,990 990,1554 598,2233 206,2912 0,3683 0,4467 L 0,22334 0,22334 C 0,23118 206,23889 598,24568 990,25247 1554,25811 2233,26203 2912,26595 3683,26801 4467,26801 L 22334,26801 22334,26801 C 23118,26801 23889,26595 24568,26203 25247,25811 25811,25247 26203,24568 26595,23889 26801,23118 26801,22334 L 26801,4466 26801,4467 26801,4467 C 26801,3683 26595,2912 26203,2233 25811,1554 25247,990 24568,598 23889,206 23118,0 22334,0 L 4466,0 Z"/>
        <path fill="none" stroke="rgb(102,102,102)" d="M 4466,0 L 4467,0 C 3683,0 2912,206 2233,598 1554,990 990,1554 598,2233 206,2912 0,3683 0,4467 L 0,22334 0,22334 C 0,23118 206,23889 598,24568 990,25247 1554,25811 2233,26203 2912,26595 3683,26801 4467,26801 L 22334,26801 22334,26801 C 23118,26801 23889,26595 24568,26203 25247,25811 25811,25247 26203,24568 26595,23889 26801,23118 26801,22334 L 26801,4466 26801,4467 26801,4467 C 26801,3683 26595,2912 26203,2233 25811,1554 25247,990 24568,598 23889,206 23118,0 22334,0 L 4466,0 Z"/>
       </g>
      </g>
      <g class="com.sun.star.drawing.CustomShape">
       <g id="id4">
        <rect class="BoundingBox" stroke="none" fill="none" x="2552" y="10174" width="21609" height="13955"/>
        <path fill="rgb(204,204,204)" stroke="none" d="M 13356,24128 L 2552,24128 2552,10174 24160,10174 24160,24128 13356,24128 Z"/>
       </g>
      </g>
      <g class="com.sun.star.drawing.CustomShape">
       <g id="id5">
        <rect class="BoundingBox" stroke="none" fill="none" x="15252" y="2583" width="8917" height="17735"/>
        <path fill="rgb(255,212,40)" stroke="none" d="M 19710,20317 L 15252,20317 15252,2583 24168,2583 24168,20317 19710,20317 Z"/>
       </g>
      </g>
      <g class="com.sun.star.drawing.CustomShape">
       <g id="id6">
        <rect class="BoundingBox" stroke="none" fill="none" x="2551" y="2583" width="8852" height="17703"/>
        <path fill="rgb(255,212,40)" stroke="none" d="M 6977,20285 L 2551,20285 2551,2583 11402,2583 11402,20285 6977,20285 Z"/>
       </g>
      </g>
      <g class="com.sun.star.drawing.ClosedBezierShape">
       <g id="id7">
        <rect class="BoundingBox" stroke="none" fill="none" x="3759" y="3820" width="7182" height="11501"/>
        <path fill="rgb(0,0,0)" stroke="none" d="M 3759,15320 C 3759,14904 3759,14488 3759,14071 4732,14071 5705,14071 6678,14071 6678,11122 6678,8173 6678,5224 5816,5841 4954,6459 4092,7077 4092,6614 4092,6152 4092,5689 4995,5066 5898,4443 6800,3820 7250,3820 7700,3820 8150,3820 8150,7237 8150,10654 8150,14071 9080,14071 10010,14071 10940,14071 10940,14488 10940,14904 10940,15320 8546,15320 6153,15320 3759,15320 Z"/>
       </g>
      </g>
      <g class="com.sun.star.drawing.ClosedBezierShape">
       <g id="id8">
        <rect class="BoundingBox" stroke="none" fill="none" x="16571" y="3820" width="7492" height="11501"/>
        <path fill="rgb(0,0,0)" stroke="none" d="M 16571,15320 L 16571,14299 C 16844,13672 17178,13118 17571,12638 17964,12158 18378,11724 18811,11335 19245,10947 19674,10586 20100,10254 20525,9921 20909,9589 21252,9257 21594,8924 21871,8576 22083,8211 22294,7847 22400,7434 22400,6973 22400,6351 22218,5868 21854,5525 21490,5182 20984,5011 20337,5011 19721,5011 19214,5178 18815,5513 18417,5848 18182,6319 18113,6924 L 16636,6788 C 16743,5882 17127,5161 17788,4625 18449,4089 19298,3820 20337,3820 21476,3820 22353,4090 22966,4629 23578,5168 23885,5933 23885,6925 23885,7364 23785,7801 23584,8235 23383,8670 23085,9104 22689,9538 22293,9972 21535,10645 20417,11557 19801,12061 19312,12515 18948,12920 18584,13324 18322,13714 18161,14090 L 24061,14090 24061,15320 16571,15320 Z"/>
       </g>
      </g>
     </g>
    </g>
   </g>
  </g>
 </g>
</svg>