<?xml version="1.0" encoding="UTF-8"?>
<!DOCTYPE svg PUBLIC "-//W3C//DTD SVG 1.1//EN" "http://www.w3.org/Graphics/SVG/1.1/DTD/svg11.dtd">
<svg version="1.2" width="165.1mm" height="165.1mm" viewBox="0 0 16510 16510" preserveAspectRatio="xMidYMid" fill-rule="evenodd" stroke-width="28.222" stroke-linejoin="round" xmlns="http://www.w3.org/2000/svg" xmlns:ooo="http://xml.openoffice.org/svg/export" xmlns:xlink="http://www.w3.org/1999/xlink" xmlns:presentation="http://sun.com/xmlns/staroffice/presentation" xmlns:smil="http://www.w3.org/2001/SMIL20/" xmlns:anim="urn:oasis:names:tc:opendocument:xmlns:animation:1.0" xmlns:svg="urn:oasis:names:tc:opendocument:xmlns:svg-compatible:1.0" xml:space="preserve">
 <defs class="ClipPathGroup">
  <clipPath id="presentation_clip_path" clipPathUnits="userSpaceOnUse">
   <rect x="0" y="0" width="16510" height="16510"/>
  </clipPath>
  <clipPath id="presentation_clip_path_shrink" clipPathUnits="userSpaceOnUse">
   <rect x="16" y="16" width="16477" height="16477"/>
  </clipPath>
 </defs>
 <defs class="TextShapeIndex">
  <g ooo:slide="id1" ooo:id-list="id3 id4 id5 id6 id7 id8 id9 id10 id11"/>
 </defs>
 <defs class="EmbeddedBulletChars">
  <g id="bullet-char-template-57356" transform="scale(0.00048828125,-0.00048828125)">
   <path d="M 580,1141 L 1163,571 580,0 -4,571 580,1141 Z"/>
  </g>
  <g id="bullet-char-template-57354" transform="scale(0.00048828125,-0.00048828125)">
   <path d="M 8,1128 L 1137,1128 1137,0 8,0 8,1128 Z"/>
  </g>
  <g id="bullet-char-template-10146" transform="scale(0.00048828125,-0.00048828125)">
   <path d="M 174,0 L 602,739 174,1481 1456,739 174,0 Z M 1358,739 L 309,1346 659,739 1358,739 Z"/>
  </g>
  <g id="bullet-char-template-10132" transform="scale(0.00048828125,-0.00048828125)">
   <path d="M 2015,739 L 1276,0 717,0 1260,543 174,543 174,936 1260,936 717,1481 1274,1481 2015,739 Z"/>
  </g>
  <g id="bullet-char-template-10007" transform="scale(0.00048828125,-0.00048828125)">
   <path d="M 0,-2 C -7,14 -16,27 -25,37 L 356,567 C 262,823 215,952 215,954 215,979 228,992 255,992 264,992 276,990 289,987 310,991 331,999 354,1012 L 381,999 492,748 772,1049 836,1024 860,1049 C 881,1039 901,1025 922,1006 886,937 835,863 770,784 769,783 710,716 594,584 L 774,223 C 774,196 753,168 711,139 L 727,119 C 717,90 699,76 672,76 641,76 570,178 457,381 L 164,-76 C 142,-110 111,-127 72,-127 30,-127 9,-110 8,-76 1,-67 -2,-52 -2,-32 -2,-23 -1,-13 0,-2 Z"/>
  </g>
  <g id="bullet-char-template-10004" transform="scale(0.00048828125,-0.00048828125)">
   <path d="M 285,-33 C 182,-33 111,30 74,156 52,228 41,333 41,471 41,549 55,616 82,672 116,743 169,778 240,778 293,778 328,747 346,684 L 369,508 C 377,444 397,411 428,410 L 1163,1116 C 1174,1127 1196,1133 1229,1133 1271,1133 1292,1118 1292,1087 L 1292,965 C 1292,929 1282,901 1262,881 L 442,47 C 390,-6 338,-33 285,-33 Z"/>
  </g>
  <g id="bullet-char-template-9679" transform="scale(0.00048828125,-0.00048828125)">
   <path d="M 813,0 C 632,0 489,54 383,161 276,268 223,411 223,592 223,773 276,916 383,1023 489,1130 632,1184 813,1184 992,1184 1136,1130 1245,1023 1353,916 1407,772 1407,592 1407,412 1353,268 1245,161 1136,54 992,0 813,0 Z"/>
  </g>
  <g id="bullet-char-template-8226" transform="scale(0.00048828125,-0.00048828125)">
   <path d="M 346,457 C 273,457 209,483 155,535 101,586 74,649 74,723 74,796 101,859 155,911 209,963 273,989 346,989 419,989 480,963 531,910 582,859 608,796 608,723 608,648 583,586 532,535 482,483 420,457 346,457 Z"/>
  </g>
  <g id="bullet-char-template-8211" transform="scale(0.00048828125,-0.00048828125)">
   <path d="M -4,459 L 1135,459 1135,606 -4,606 -4,459 Z"/>
  </g>
  <g id="bullet-char-template-61548" transform="scale(0.00048828125,-0.00048828125)">
   <path d="M 173,740 C 173,903 231,1043 346,1159 462,1274 601,1332 765,1332 928,1332 1067,1274 1183,1159 1299,1043 1357,903 1357,740 1357,577 1299,437 1183,322 1067,206 928,148 765,148 601,148 462,206 346,322 231,437 173,577 173,740 Z"/>
  </g>
 </defs>
 <g>
  <g id="id2" class="Master_Slide">
   <g id="bg-id2" class="Background"/>
   <g id="bo-id2" class="BackgroundObjects"/>
  </g>
 </g>
 <g class="SlideGroup">
  <g>
   <g id="container-id1">
    <g id="id1" class="Slide" clip-path="url(#presentation_clip_path)">
     <g class="Page">
      <g class="com.sun.star.drawing.CustomShape">
       <g id="id3">
        <rect class="BoundingBox" stroke="none" fill="none" x="0" y="0" width="3812" height="3812"/>
        <path fill="rgb(171,171,171)" stroke="none" d="M 635,0 L 635,0 C 524,0 414,29 318,85 221,141 141,221 85,318 29,414 0,524 0,635 L 0,3175 0,3176 C 0,3287 29,3397 85,3493 141,3590 221,3670 318,3726 414,3782 524,3811 635,3811 L 3175,3811 3176,3811 C 3287,3811 3397,3782 3493,3726 3590,3670 3670,3590 3726,3493 3782,3397 3811,3287 3811,3176 L 3811,635 3811,635 3811,635 C 3811,524 3782,414 3726,318 3670,221 3590,141 3493,85 3397,29 3287,0 3176,0 L 635,0 Z"/>
       </g>
      </g>
      <g class="com.sun.star.drawing.CustomShape">
       <g id="id4">
        <rect class="BoundingBox" stroke="none" fill="none" x="6350" y="0" width="3812" height="3812"/>
        <path fill="rgb(106,152,233)" stroke="none" d="M 6985,0 L 6985,0 C 6874,0 6764,29 6668,85 6571,141 6491,221 6435,318 6379,414 6350,524 6350,635 L 6350,3175 6350,3176 C 6350,3287 6379,3397 6435,3493 6491,3590 6571,3670 6668,3726 6764,3782 6874,3811 6985,3811 L 9525,3811 9526,3811 C 9637,3811 9747,3782 9843,3726 9940,3670 10020,3590 10076,3493 10132,3397 10161,3287 10161,3176 L 10161,635 10161,635 10161,635 C 10161,524 10132,414 10076,318 10020,221 9940,141 9843,85 9747,29 9637,0 9526,0 L 6985,0 Z"/>
       </g>
      </g>
      <g class="com.sun.star.drawing.CustomShape">
       <g id="id5">
        <rect class="BoundingBox" stroke="none" fill="none" x="12700" y="0" width="3812" height="3812"/>
        <path fill="rgb(106,152,233)" stroke="none" d="M 13335,0 L 13335,0 C 13224,0 13114,29 13018,85 12921,141 12841,221 12785,318 12729,414 12700,524 12700,635 L 12700,3175 12700,3176 C 12700,3287 12729,3397 12785,3493 12841,3590 12921,3670 13018,3726 13114,3782 13224,3811 13335,3811 L 15875,3811 15876,3811 C 15987,3811 16097,3782 16193,3726 16290,3670 16370,3590 16426,3493 16482,3397 16511,3287 16511,3176 L 16511,635 16511,635 16511,635 C 16511,524 16482,414 16426,318 16370,221 16290,141 16193,85 16097,29 15987,0 15876,0 L 13335,0 Z"/>
       </g>
      </g>
      <g class="com.sun.star.drawing.CustomShape">
       <g id="id6">
        <rect class="BoundingBox" stroke="none" fill="none" x="0" y="6350" width="3812" height="3812"/>
        <path fill="rgb(98,163,50)" stroke="none" d="M 635,6350 L 635,6350 C 524,6350 414,6379 318,6435 221,6491 141,6571 85,6668 29,6764 0,6874 0,6985 L 0,9525 0,9526 C 0,9637 29,9747 85,9843 141,9940 221,10020 318,10076 414,10132 524,10161 635,10161 L 3175,10161 3176,10161 C 3287,10161 3397,10132 3493,10076 3590,10020 3670,9940 3726,9843 3782,9747 3811,9637 3811,9526 L 3811,6985 3811,6985 3811,6985 C 3811,6874 3782,6764 3726,6668 3670,6571 3590,6491 3493,6435 3397,6379 3287,6350 3176,6350 L 635,6350 Z"/>
       </g>
      </g>
      <g class="com.sun.star.drawing.CustomShape">
       <g id="id7">
        <rect class="BoundingBox" stroke="none" fill="none" x="6350" y="6350" width="3812" height="3812"/>
        <path fill="rgb(171,171,171)" stroke="none" d="M 6985,6350 L 6985,6350 C 6874,6350 6764,6379 6668,6435 6571,6491 6491,6571 6435,6668 6379,6764 6350,6874 6350,6985 L 6350,9525 6350,9526 C 6350,9637 6379,9747 6435,9843 6491,9940 6571,10020 6668,10076 6764,10132 6874,10161 6985,10161 L 9525,10161 9526,10161 C 9637,10161 9747,10132 9843,10076 9940,10020 10020,9940 10076,9843 10132,9747 10161,9637 10161,9526 L 10161,6985 10161,6985 10161,6985 C 10161,6874 10132,6764 10076,6668 10020,6571 9940,6491 9843,6435 9747,6379 9637,6350 9526,6350 L 6985,6350 Z"/>
       </g>
      </g>
      <g class="com.sun.star.drawing.CustomShape">
       <g id="id8">
        <rect class="BoundingBox" stroke="none" fill="none" x="12700" y="6350" width="3812" height="3812"/>
        <path fill="rgb(106,152,233)" stroke="none" d="M 13335,6350 L 13335,6350 C 13224,6350 13114,6379 13018,6435 12921,6491 12841,6571 12785,6668 12729,6764 12700,6874 12700,6985 L 12700,9525 12700,9526 C 12700,9637 12729,9747 12785,9843 12841,9940 12921,10020 13018,10076 13114,10132 13224,10161 13335,10161 L 15875,10161 15876,10161 C 15987,10161 16097,10132 16193,10076 16290,10020 16370,9940 16426,9843 16482,9747 16511,9637 16511,9526 L 16511,6985 16511,6985 16511,6985 C 16511,6874 16482,6764 16426,6668 16370,6571 16290,6491 16193,6435 16097,6379 15987,6350 15876,6350 L 13335,6350 Z"/>
       </g>
      </g>
      <g class="com.sun.star.drawing.CustomShape">
       <g id="id9">
        <rect class="BoundingBox" stroke="none" fill="none" x="0" y="12700" width="3812" height="3812"/>
        <path fill="rgb(98,163,50)" stroke="none" d="M 635,12700 L 635,12700 C 524,12700 414,12729 318,12785 221,12841 141,12921 85,13018 29,13114 0,13224 0,13335 L 0,15875 0,15876 C 0,15987 29,16097 85,16193 141,16290 221,16370 318,16426 414,16482 524,16511 635,16511 L 3175,16511 3176,16511 C 3287,16511 3397,16482 3493,16426 3590,16370 3670,16290 3726,16193 3782,16097 3811,15987 3811,15876 L 3811,13335 3811,13335 3811,13335 C 3811,13224 3782,13114 3726,13018 3670,12921 3590,12841 3493,12785 3397,12729 3287,12700 3176,12700 L 635,12700 Z"/>
       </g>
      </g>
      <g class="com.sun.star.drawing.CustomShape">
       <g id="id10">
        <rect class="BoundingBox" stroke="none" fill="none" x="6350" y="12700" width="3812" height="3812"/>
        <path fill="rgb(98,163,50)" stroke="none" d="M 6985,12700 L 6985,12700 C 6874,12700 6764,12729 6668,12785 6571,12841 6491,12921 6435,13018 6379,13114 6350,13224 6350,13335 L 6350,15875 6350,15876 C 6350,15987 6379,16097 6435,16193 6491,16290 6571,16370 6668,16426 6764,16482 6874,16511 6985,16511 L 9525,16511 9526,16511 C 9637,16511 9747,16482 9843,16426 9940,16370 10020,16290 10076,16193 10132,16097 10161,15987 10161,15876 L 10161,13335 10161,13335 10161,13335 C 10161,13224 10132,13114 10076,13018 10020,12921 9940,12841 9843,12785 9747,12729 9637,12700 9526,12700 L 6985,12700 Z"/>
       </g>
      </g>
      <g class="com.sun.star.drawing.CustomShape">
       <g id="id11">
        <rect class="BoundingBox" stroke="none" fill="none" x="12700" y="12700" width="3812" height="3812"/>
        <path fill="rgb(171,171,171)" stroke="none" d="M 13335,12700 L 13335,12700 C 13224,12700 13114,12729 13018,12785 12921,12841 12841,12921 12785,13018 12729,13114 12700,13224 12700,13335 L 12700,15875 12700,15876 C 12700,15987 12729,16097 12785,16193 12841,16290 12921,16370 13018,16426 13114,16482 13224,16511 13335,16511 L 15875,16511 15876,16511 C 15987,16511 16097,16482 16193,16426 16290,16370 16370,16290 16426,16193 16482,16097 16511,15987 16511,15876 L 16511,13335 16511,13335 16511,13335 C 16511,13224 16482,13114 16426,13018 16370,12921 16290,12841 16193,12785 16097,12729 15987,12700 15876,12700 L 13335,12700 Z"/>
       </g>
      </g>
     </g>
    </g>
   </g>
  </g>
 </g>
</svg>